<?xml version="1.0" encoding="UTF-8" standalone="no"?>
<!DOCTYPE svg PUBLIC "-//W3C//DTD SVG 1.1//EN" "http://www.w3.org/Graphics/SVG/1.1/DTD/svg11.dtd">
<svg width="100%" height="100%" viewBox="0 0 350 150" version="1.1" xmlns="http://www.w3.org/2000/svg" xmlns:xlink="http://www.w3.org/1999/xlink" xml:space="preserve" xmlns:serif="http://www.serif.com/" style="fill-rule:evenodd;clip-rule:evenodd;stroke-linejoin:round;stroke-miterlimit:2;">
    <rect x="0" y="0" width="350" height="150" style="fill:white;"/>
    <g transform="matrix(1.43813,0,0,1.43813,-6.4067,-104.766)">
        <g transform="matrix(0.0344065,0,0,0.0344065,12.7066,100.74)">
            <path d="M2047.8,210.4C1970.6,210.4 1896.2,220.1 1865.9,228.3C1821.8,240.7 1810.8,260 1802.5,300L1627.5,1107.5C1624.7,1124 1622,1137.8 1622,1151.6C1622,1191.6 1648.2,1217.7 1690.9,1217.7C1737.8,1217.7 1757.1,1187.4 1766.7,1140.5L1816.3,910.4C1850.7,914.5 1896.2,918.7 1961,918.7C2246.3,918.7 2424,764.4 2424,531.5C2424,327.5 2282,210.4 2047.8,210.4ZM1954.1,786.4C1910,786.4 1875.5,785 1843.9,780.9L1936.2,352.3C1965.1,348.2 2007.9,342.6 2052,342.6C2203.6,342.6 2280.8,414.3 2280.8,532.8C2280.7,684.4 2170.4,786.4 1954.1,786.4Z" style="fill-rule:nonzero;"/>
        </g>
        <g transform="matrix(0.0344065,0,0,0.0344065,12.7066,100.74)">
            <path d="M6537.3,951.7C6513.9,951.7 6498.7,965.5 6469.8,997.2C6418.8,1049.6 6387.1,1078.5 6347.2,1078.5C6311.4,1078.5 6292.1,1049.6 6292.1,1002.7C6292.1,976.5 6297.6,944.8 6304.5,910.4L6355.5,670.6L6508.5,670.6C6556.7,670.6 6585.7,643 6585.7,593.4C6585.7,565.8 6567.8,545.2 6526.5,545.2L6383,545.2L6407.8,433.6C6410.6,417.1 6413.3,401.9 6413.3,388.1C6413.3,349.5 6387.1,321.9 6344.4,321.9C6298.9,321.9 6278.3,352.2 6268.6,399.1L6236.9,545.2L6172.1,545.2C6122.5,545.2 6093.6,572.8 6093.6,622.4C6093.6,650 6112.9,670.6 6154.2,670.6L6210.7,670.6L6159.7,907.6C6154.2,933.8 6147.3,976.5 6147.3,1020.6C6147.3,1132.2 6205.2,1213.5 6329.2,1213.5C6400.9,1213.5 6464.2,1177.7 6512.5,1134.9C6559.4,1093.6 6593.8,1042.6 6593.8,1009.5C6593.8,977.9 6569,951.7 6537.3,951.7Z" style="fill-rule:nonzero;"/>
        </g>
        <g transform="matrix(0.0344065,0,0,0.0344065,12.7066,100.74)">
            <path d="M3367.9,291.7C3367.9,251.7 3340.3,225.5 3297.6,225.5C3252.1,225.5 3231.5,255.8 3221.8,302.7L3049.6,1103.3C3045.5,1119.8 3042.7,1133.6 3042.7,1147.4C3042.7,1187.4 3070.3,1213.5 3111.6,1213.5C3158.5,1213.5 3179.1,1183.2 3188.8,1136.3L3361,335.8C3363.8,319.2 3367.9,305.5 3367.9,291.7Z" style="fill-rule:nonzero;"/>
        </g>
        <g transform="matrix(0.0344065,0,0,0.0344065,12.7066,100.74)">
            <path d="M5827.6,531.4C5607.1,531.4 5456.9,750.5 5456.9,958.6C5456.9,962.5 5457,966.4 5457.1,970.2C5422.5,1022.7 5378.3,1077.1 5348,1077.1C5326,1077.1 5317.7,1056.4 5317.7,1024.7C5317.7,986.1 5328.7,921.3 5341.1,864.8L5455.5,335.6C5458.3,319.1 5461,305.3 5461,291.5C5461,251.5 5434.8,225.3 5392.1,225.3C5345.2,225.3 5326,255.6 5316.3,302.5L5254.3,589.1C5221.2,554.7 5172.9,531.2 5099.9,531.2C4953.5,531.2 4806.2,643.9 4748.8,816.8C4685.6,980.2 4629.1,1076.9 4584.5,1076.9C4568,1076.9 4558.3,1063.1 4558.3,1039.7C4558.3,970.8 4596.9,802.7 4613.4,721.4C4618.9,691.1 4621.7,678.7 4621.7,660.8C4621.7,600.2 4521.1,528.5 4390.2,528.5C4238.8,528.5 4101.7,624.4 4033,766.8C3930.9,947.2 3837.2,1076.9 3790.8,1076.9C3770.1,1076.9 3763.2,1050.7 3757.7,1025.9L3723.4,836L3934.2,663.8C3953.5,647.3 3978.3,623.8 3978.3,593.5C3978.3,556.3 3953.5,531.5 3916.3,531.5C3888.7,531.5 3865.3,548 3841.9,567.3L3525,829.1L3631.1,335.8C3633.9,319.3 3638,305.5 3638,291.7C3638,251.7 3610.4,225.5 3567.7,225.5C3522.2,225.5 3501.6,255.8 3491.9,302.7L3319.7,1103.3C3315.6,1119.8 3312.8,1133.6 3312.8,1147.4C3312.8,1187.4 3340.4,1213.5 3381.7,1213.5C3428.6,1213.5 3449.2,1183.2 3458.9,1136.3L3481,1033L3610.5,928.3L3642.2,1088.1C3654.6,1151.5 3687.7,1213.5 3773.1,1213.5C3858.1,1213.5 3925,1135.9 3992,1031C4012.3,1140.9 4090.5,1213.5 4199,1213.5C4307.9,1213.5 4382.3,1148.7 4430.5,1061.9L4430.5,1064.7C4430.5,1154.3 4476,1213.5 4555.9,1213.5C4628.2,1213.5 4688.2,1169.9 4741.8,1077.3C4772.2,1158 4840.2,1213.5 4934.8,1213.5C5046.4,1213.5 5126.3,1146 5177.3,1052.3L5177.3,1060.6C5177.3,1159.8 5226.9,1213.6 5308.2,1213.6C5380,1213.6 5441,1171.9 5493.1,1104.1C5532.7,1171.9 5603.7,1213.6 5699.6,1213.6C5920.1,1213.6 6070.3,994.5 6070.3,785C6070.2,637.5 5980.6,531.4 5827.6,531.4ZM4453.8,811.2C4413.8,983.4 4328.4,1081.3 4231.9,1081.3C4167.1,1081.3 4131.3,1031.7 4131.3,957.3C4131.3,811.2 4237.4,654.1 4379.3,654.1C4422,654.1 4455.1,666.5 4484,684.4L4453.8,811.2ZM5221.3,738.2C5177.2,940.8 5076.6,1081.3 4966.4,1081.3C4905.8,1081.3 4869.9,1034.4 4869.9,957.3C4869.9,809.9 4971.9,656.9 5108.3,656.9C5160.7,656.9 5200.6,674.8 5229.6,698.2L5221.3,738.2ZM5716,1081.3C5636.1,1081.3 5603,1023.4 5603,950.4C5603,816.7 5695.3,663.8 5811.1,663.8C5891,663.8 5924.1,721.7 5924.1,794.7C5924.1,929.7 5831.8,1081.3 5716,1081.3Z" style="fill-rule:nonzero;"/>
        </g>
        <g transform="matrix(0.0344065,0,0,0.0344065,12.7066,100.74)">
            <path d="M2767.1,531.4C2546.6,531.4 2396.4,750.5 2396.4,958.6C2396.4,1107.4 2486,1213.5 2638.9,1213.5C2859.4,1213.5 3009.6,994.4 3009.6,784.9C3009.6,637.5 2920,531.4 2767.1,531.4ZM2655.5,1081.3C2575.6,1081.3 2542.5,1023.4 2542.5,950.4C2542.5,816.7 2634.8,663.8 2750.6,663.8C2830.5,663.8 2863.6,721.7 2863.6,794.7C2863.5,929.7 2771.2,1081.3 2655.5,1081.3Z" style="fill-rule:nonzero;"/>
        </g>
        <g transform="matrix(0.0344065,0,0,0.0344065,12.7066,100.74)">
            <ellipse cx="663" cy="147.9" rx="254.3" ry="147.9" style="fill:rgb(230,0,122);"/>
        </g>
        <g transform="matrix(0.0344065,0,0,0.0344065,12.7066,100.74)">
            <ellipse cx="663" cy="1262.3" rx="254.3" ry="147.9" style="fill:rgb(230,0,122);"/>
        </g>
        <g transform="matrix(0.0172033,-0.0297961,0.0297961,0.0172033,3.10196,113.456)">
            <ellipse cx="180.5" cy="426.5" rx="254.3" ry="148" style="fill:rgb(230,0,122);"/>
        </g>
        <g transform="matrix(0.0172033,-0.0297961,0.0297961,0.0172033,3.10182,151.798)">
            <ellipse cx="1145.6" cy="983.7" rx="254.3" ry="147.9" style="fill:rgb(230,0,122);"/>
        </g>
        <g transform="matrix(0.0297961,-0.0172033,0.0172033,0.0297961,-3.38465,108.38)">
            <ellipse cx="180.5" cy="983.7" rx="148" ry="254.3" style="fill:rgb(230,0,122);"/>
        </g>
        <g transform="matrix(0.0297961,-0.0172033,0.0172033,0.0297961,10.6491,122.414)">
            <ellipse cx="1145.6" cy="426.6" rx="147.9" ry="254.3" style="fill:rgb(230,0,122);"/>
        </g>
    </g>
</svg>
