<?xml version="1.0" encoding="UTF-8" standalone="no"?>
<!DOCTYPE svg PUBLIC "-//W3C//DTD SVG 1.1//EN" "http://www.w3.org/Graphics/SVG/1.1/DTD/svg11.dtd">
<svg width="100%" height="100%" viewBox="0 0 250 250" version="1.1" xmlns="http://www.w3.org/2000/svg" xmlns:xlink="http://www.w3.org/1999/xlink" xml:space="preserve" xmlns:serif="http://www.serif.com/" style="fill-rule:evenodd;clip-rule:evenodd;stroke-linejoin:round;stroke-miterlimit:2;">
    <g id="Artboard1" transform="matrix(6.33335,0,0,8.93718,-170.384,173.67)">
        <g transform="matrix(0.157894,0,0,0.111892,26.9027,-19.4323)">
            <rect x="0" y="0" width="250" height="250" style="fill:white;"/>
        </g>
        <g transform="matrix(0.0632308,0,0,0.0448086,-28.6677,-40.6654)">
            <g transform="matrix(1,0,0,1,0,-250.619)">
                <clipPath id="_clip1">
                    <path d="M1234.33,993.794C1227.62,1000.39 1215,1000.46 1208.9,992.767C1203.95,986.519 1204.5,977.799 1210.48,971.922C1217.3,965.22 1229.23,964.665 1235.02,972.067C1240.6,979.197 1239.86,988.37 1234.33,993.794ZM1054.84,1007.75L1058.96,984.195C1092.51,1010.69 1129.63,1017.18 1180.52,1007.27C1182.12,1007.14 1186.9,1005.4 1187.49,1007.27C1175.59,1055.78 1082.86,1048.96 1054.84,1007.75ZM1367.05,847.705C1364.23,845.484 1362.49,846.388 1357.66,853.067C1353.79,858.433 1345.93,858.529 1336.63,866.014C1331.48,870.167 1329.55,874.634 1325.42,878.944C1323.65,880.117 1321,878.682 1319.45,877.649C1317,876.013 1314.64,875.011 1312.39,874.338C1310.73,873.792 1308.72,873.354 1306.17,873.033C1292.69,871.339 1289.52,860.886 1285.91,868.519C1283.19,874.267 1282.08,879.981 1282.08,886.84C1282.08,900.915 1292.88,912.455 1306.65,913.658C1307.43,913.757 1308.21,913.8 1309,913.775C1309.01,913.775 1309.01,913.778 1309.02,913.778C1309.08,913.778 1309.12,913.766 1309.18,913.766C1309.62,913.747 1310.06,913.72 1310.49,913.661C1310.5,913.658 1310.51,913.655 1310.53,913.655C1311.53,913.513 1312.53,913.272 1313.5,912.887C1319.19,911.091 1316.24,916.728 1313.26,918.733C1309.79,921.544 1304.24,923.769 1299.43,924.435C1286.57,926.246 1273.82,917.586 1262.9,909.693C1251.03,901.662 1238.37,893.764 1226.96,888.077C1224.6,887.133 1220.82,888.663 1218.32,889.901C1217.1,890.475 1215.49,891.311 1214.28,891.931C1211.67,893.47 1208.78,894.822 1205.68,896.013C1201.75,947.708 1136.85,967.081 1080.78,967.075C1068.24,966.843 1057.4,965.294 1048.14,962.943C1047.59,968.898 1048.7,973.77 1052,976.837C1052.02,976.855 1048.64,995.33 1047.77,1000.07C1043.59,999.733 1040.29,1006.57 1039.57,1010.12C1034.2,1029.74 1064.5,1054.3 1082.87,1062.34C1129.21,1086.87 1190.05,1089.13 1239.47,1070.02C1260.95,1082.79 1291.24,1081 1310.74,1065.96C1314.18,1063.67 1317.54,1060.99 1313.58,1057.65C1308.38,1052.2 1301.4,1047.88 1294.71,1044.16C1294.05,1043.66 1291.86,1042.81 1292.3,1041.86L1292.43,1041.71L1293.35,1040.82C1328.48,1012 1341.36,979.611 1339.38,933.534C1339.53,922.007 1340.45,915.463 1352.08,911.381C1377.93,899.971 1386.68,867.31 1367.05,847.705ZM1212.76,979.252C1209.62,982.328 1209.64,986.894 1212.28,990.165C1215.86,994.611 1222.64,994.188 1225.77,991.112C1228.25,988.671 1229.09,983.908 1225.71,979.662C1222.34,975.423 1215.95,976.117 1212.76,979.252ZM1109.03,887.431C1111.86,888.094 1114.93,888.606 1117.82,888.961C1132.12,890.569 1146.74,890.498 1161.1,889.662C1171.79,888.989 1182.67,887.733 1193.19,885.623C1197.53,884.685 1214.32,881.957 1202.86,877.7L1203.06,877.74C1167.29,864.997 1137.02,867.067 1112.17,880.143C1108.55,882.136 1099.67,885.237 1109.03,887.431Z"/>
                </clipPath>
                <g clip-path="url(#_clip1)">
                    <rect x="1032.2" y="843.484" width="356.479" height="247.651" style="fill:rgb(28,106,228);"/>
                </g>
            </g>
            <g transform="matrix(1,0,0,1,0,-325.864)">
                <clipPath id="_clip2">
                    <path d="M1084.23,974.939C1084.15,974.911 1084.12,974.899 1084.03,974.856C1081.3,974.211 1079.11,971.675 1076.38,972.314C1053.2,981.196 1030.95,990.647 1008.97,1001.95C999.887,1006.55 1011.28,1028.83 1048.14,1038.19C1049.79,1020.57 1066.12,993.418 1084.1,975.056C1084.14,975.013 1084.19,974.979 1084.23,974.939Z"/>
                </clipPath>
                <g clip-path="url(#_clip2)">
                    <rect x="997.887" y="969.675" width="88.345" height="70.514" style="fill:rgb(123,233,128);"/>
                </g>
            </g>
            <g transform="matrix(1,0,0,1,0,-322.142)">
                <clipPath id="_clip3">
                    <path d="M1092.71,973.854C1091.43,973.53 1090.2,973.185 1088.99,972.818C1090.2,973.185 1091.43,973.53 1092.71,973.854ZM1098,975.061C1096.4,974.743 1094.85,974.391 1093.34,974.018C1094.85,974.391 1096.4,974.743 1098,975.061ZM1102.78,975.912C1101.22,975.662 1099.7,975.394 1098.2,975.101C1099.7,975.394 1101.22,975.662 1102.78,975.912ZM1108.51,976.718C1106.88,976.523 1105.29,976.298 1103.72,976.057C1105.29,976.298 1106.88,976.523 1108.51,976.718ZM1205.69,967.535C1205.68,967.535 1205.68,967.535 1205.68,967.539C1205.11,967.758 1204.5,967.946 1203.92,968.156C1203.85,968.18 1203.79,968.205 1203.72,968.227C1195.58,971.127 1186.32,973.034 1177.41,974.407C1158.6,977.637 1137.57,979.007 1118.24,977.594C1117.08,977.52 1115.91,977.446 1114.78,977.35C1115.91,977.446 1117.08,977.52 1118.24,977.594L1118.23,977.594C1116.02,977.449 1113.84,977.267 1111.69,977.048C1112.49,977.128 1113.27,977.224 1114.08,977.294C1113.27,977.224 1112.49,977.128 1111.69,977.048C1101.34,976.005 1091.93,974.132 1084.39,971.266C1085.62,971.732 1086.9,972.17 1088.22,972.586C1086.85,972.154 1085.51,971.704 1084.23,971.216C1084.19,971.256 1084.14,971.29 1084.1,971.334C1066.12,989.695 1049.79,1016.85 1048.14,1034.47C1057.4,1036.82 1068.23,1038.37 1080.78,1038.6C1136.86,1038.61 1201.75,1019.23 1205.69,967.535Z"/>
                </clipPath>
                <g clip-path="url(#_clip3)">
                    <rect x="1046.14" y="965.535" width="161.542" height="75.072" style="fill:rgb(74,201,123);"/>
                </g>
            </g>
            <g transform="matrix(1,0,0,1,0,208.37)">
                <clipPath id="_clip4">
                    <path d="M1177.35,740.271C1171.75,740.346 1165.01,740.421 1158.81,740.193C1159.57,731.859 1162.67,729.736 1168.8,729.736C1175,729.736 1177.43,732.162 1177.43,738.148C1177.43,738.981 1177.43,739.665 1177.35,740.271ZM1185.4,724.971C1181.84,721.211 1176.51,719.731 1169.62,719.731L1169.33,719.731C1154.8,719.731 1145.64,727.081 1145.64,743.755C1145.64,759.902 1154.42,767.63 1169.03,767.63C1186.05,767.63 1190.21,762.022 1189.99,752.018C1189.99,752.018 1186.45,752.117 1183.87,752.117C1181.38,752.117 1177.58,752.018 1177.58,752.018C1177.43,755.58 1175.61,757.551 1169.25,757.551C1162.52,757.551 1159.34,755.124 1158.74,747.471C1170.59,747.471 1185,747.328 1190.37,747.599C1190.47,746.425 1190.48,745.039 1190.51,743.755C1190.64,737.888 1189.92,733.317 1188.45,729.798C1187.72,727.968 1186.73,726.341 1185.4,724.971ZM1126.59,708.074C1126.82,717.685 1126.82,726.844 1126.82,738.041C1126.82,748.485 1126.82,758.096 1126.59,766.646L1140.74,766.646C1140.52,757.719 1140.52,750.075 1140.52,738.646C1140.52,725.782 1140.52,717.155 1140.74,708.074L1126.59,708.074ZM1070.56,736.226C1070.56,724.723 1064.43,719.955 1054.82,719.955C1046.94,719.955 1041.65,722.453 1038.92,728.13L1038.54,728.055C1038.62,725.557 1038.7,723.587 1038.77,720.939C1038.77,716.776 1038.77,713.145 1039,708.074L1022.46,708.074C1022.54,726.921 1022.71,749.234 1022.34,766.67L1038.8,766.67C1038.79,766.505 1038.78,766.311 1038.76,766.13C1038.69,761.759 1038.62,757.166 1038.62,743.111C1038.62,734.787 1043.01,731.611 1048.76,731.611C1054.51,731.611 1056.56,733.956 1056.56,740.314C1056.56,751.361 1056.48,760.063 1056.33,766.648L1070.63,766.648C1070.4,761.653 1070.4,756.81 1070.4,751.058C1070.4,746.518 1070.56,742.808 1070.56,736.226ZM1095.72,757.566C1090.73,757.566 1088.99,756.051 1088.99,752.876C1088.99,749.394 1091.41,747.805 1097.01,747.805C1099.96,747.805 1102.76,747.88 1105.41,748.257C1105.33,754.009 1101.55,757.566 1095.72,757.566ZM1119.41,737.741C1119.41,726.993 1113.51,719.955 1097.84,719.955C1082.33,719.955 1076.12,728.13 1076.8,739.027C1078.7,738.721 1081.42,738.721 1084.14,738.721C1086.27,738.721 1088.46,738.721 1090.12,738.799C1089.9,733.576 1092.32,731.384 1098.07,731.384C1103.52,731.384 1105.56,733.804 1105.56,738.119C1105.56,739.327 1105.56,740.614 1105.49,741.9C1102.84,741.522 1099.05,741.372 1095.19,741.372C1081.95,741.372 1075.44,745.382 1075.44,754.843C1075.44,764.073 1080.74,767.404 1090.5,767.404C1098.3,767.404 1103.44,764.678 1105.41,759.005L1105.79,759.08C1105.71,760.591 1105.64,762.181 1105.64,763.47C1105.64,766.346 1106.17,766.646 1108.66,766.646L1120.32,766.646C1119.56,764.604 1119.18,758.321 1119.18,753.1C1119.18,747.652 1119.41,743.489 1119.41,737.741ZM1018.63,708.074C1015.19,721.663 1008,758.134 1006.28,766.646C1003.54,766.568 999.709,766.493 995.332,766.493C989.234,766.493 986.177,766.568 984.3,766.646C983.519,762.04 981.721,750.793 980.078,740.717C979.451,736.345 978.904,731.268 978.358,726.737L977.964,726.737C977.34,731.346 976.716,736.579 975.932,740.876C974.211,750.559 972.179,761.572 971.32,766.646C968.738,766.646 965.131,766.493 960.91,766.493C955.202,766.493 952.232,766.568 950.434,766.646C948.323,756.963 941.675,721.741 938,708.074L957.244,708.074C957.556,712.368 959.823,729.082 961.543,740.486C962.093,743.998 962.561,747.514 963.03,750.325L963.501,750.325C963.966,747.433 964.516,743.998 965.141,740.329C966.861,729.082 969.443,713.698 969.834,708.074C972.569,708.152 976.887,708.152 980.016,708.152C983.141,708.152 987.513,708.152 990.092,708.074C990.642,713.23 992.518,729.004 994.551,740.642C995.254,744.545 995.722,747.905 996.115,750.637L996.584,750.637C996.974,747.827 997.364,744.467 998.07,740.642C999.791,729.082 1001.98,713.776 1002.53,708.074L1018.63,708.074ZM1422.26,719.657C1437.24,719.657 1443.3,724.363 1443.3,733.474C1443.3,734.155 1443.22,734.839 1443.14,735.675C1441.56,735.522 1438.91,735.448 1436.41,735.448C1434.14,735.448 1431.87,735.522 1430.51,735.597L1430.51,734.839C1430.51,731.957 1428.62,730.514 1422.03,730.514C1415.75,730.514 1413.93,731.729 1413.93,733.852C1413.93,735.825 1415.3,737.496 1425.74,738.636C1439.67,740.228 1443.98,744.631 1443.98,753.211C1443.98,761.942 1438.15,767.559 1422.49,767.559C1405.54,767.559 1400.46,762.017 1400.46,753.286C1400.46,752.68 1400.54,751.922 1400.54,751.238C1400.54,751.238 1402.04,751.319 1407.27,751.428C1411.45,751.516 1413.33,751.313 1413.33,751.313L1413.33,752.072C1413.33,755.032 1415.45,756.627 1422.64,756.627C1428.84,756.627 1430.74,755.413 1430.74,752.983C1430.74,750.704 1428.84,749.186 1419.31,748.353C1404.48,746.757 1400.62,741.368 1400.62,733.624C1400.62,724.288 1407.27,719.657 1422.26,719.657ZM1369.24,708C1369.2,708.989 1369.18,709.969 1369.15,710.946L1369.11,712.898C1369.03,716.802 1369.01,720.731 1369,725.116L1369,729.668C1369,732.43 1369.01,735.396 1369.01,738.65L1369.01,741.829L1369.16,741.829C1371.28,739.484 1373.47,737.061 1375.29,734.791C1380.13,728.736 1383.23,724.196 1385.28,720.715L1401.1,720.715C1396.63,726.391 1388.08,738.119 1382.78,743.871C1388.45,749.772 1395.12,760.064 1401.78,766.574L1387.09,766.574C1385.05,766.574 1384.14,766.197 1383.23,764.907C1379.3,759.536 1373.78,752.195 1369.31,747.73L1369.01,747.73L1369.01,751.366C1369.01,756.657 1369.04,761.312 1369.16,766.574L1355.01,766.574C1355.16,757.947 1355.16,748.411 1355.16,737.589C1355.16,726.694 1355.31,717.461 1355.01,708L1369.24,708ZM1326.43,755.676C1319.85,755.676 1315.77,751.817 1315.77,743.343C1315.77,734.79 1319.93,731.612 1326.43,731.612C1333.02,731.612 1337.11,735.018 1337.11,743.343C1337.11,751.667 1333.17,755.676 1326.43,755.676ZM1326.43,719.656C1311.98,719.656 1302.44,727.677 1302.44,742.887C1302.44,758.021 1311.3,767.557 1326.43,767.557C1341.64,767.557 1350.73,758.021 1350.73,742.887C1350.73,727.677 1340.89,719.656 1326.43,719.656ZM1275.45,755.676C1268.87,755.676 1264.78,751.817 1264.78,743.343C1264.78,734.79 1268.95,731.612 1275.45,731.612C1282.04,731.612 1286.12,735.018 1286.12,743.343C1286.12,751.667 1282.19,755.676 1275.45,755.676ZM1275.45,719.656C1261,719.656 1251.46,727.677 1251.46,742.887C1251.46,758.021 1260.32,767.557 1275.45,767.557C1290.66,767.557 1299.75,758.021 1299.75,742.887C1299.75,727.677 1289.91,719.656 1275.45,719.656ZM1233.37,747.752C1233.37,743.222 1230.64,741.66 1223.98,741.66C1220.2,741.66 1215.73,741.741 1210.97,741.816C1210.97,746.191 1210.97,750.409 1211.04,754.156C1216.34,754.313 1220.58,754.313 1224.36,754.313C1230.87,754.313 1233.37,752.907 1233.37,747.752ZM1224.21,719.325C1220.12,719.325 1215.88,719.403 1211.04,719.559C1210.97,723.075 1210.97,727.369 1210.97,731.899C1215.81,732.056 1220.05,731.978 1223.91,731.978C1229.96,731.899 1232.76,729.792 1232.76,724.871C1232.76,720.808 1230.19,719.325 1224.21,719.325ZM1235.26,737.367C1237.15,737.601 1238.74,737.835 1240.03,738.382C1245.63,740.411 1247.89,744.239 1247.89,750.8C1247.89,761.107 1241.46,766.574 1228.22,766.574L1196.13,766.574C1196.59,758.453 1196.59,749.707 1196.59,737.289C1196.59,724.871 1196.59,715.734 1196.13,708L1227.24,708C1240.33,708 1247.14,712.609 1247.14,723.544C1247.14,729.948 1245.32,733.305 1241.01,735.568C1239.57,736.274 1237.6,736.742 1235.26,737.055L1235.26,737.367Z"/>
                </clipPath>
                <g clip-path="url(#_clip4)">
                    <rect x="936" y="706" width="509.979" height="63.63" style="fill:rgb(28,106,228);"/>
                </g>
            </g>
        </g>
    </g>
</svg>
