<?xml version="1.0" encoding="UTF-8" standalone="no"?>
<svg
   width="52"
   height="52"
   viewBox="0 0 52 52"
   version="1.1"
   id="svg19"
   sodipodi:docname="anycoin-logo-square.svg"
   inkscape:version="1.1.2 (b8e25be8, 2022-02-05)"
   xmlns:inkscape="http://www.inkscape.org/namespaces/inkscape"
   xmlns:sodipodi="http://sodipodi.sourceforge.net/DTD/sodipodi-0.dtd"
   xmlns="http://www.w3.org/2000/svg"
   xmlns:svg="http://www.w3.org/2000/svg">
  <defs
     id="defs23" />
  <sodipodi:namedview
     id="namedview21"
     pagecolor="#ffffff"
     bordercolor="#666666"
     borderopacity="1.0"
     inkscape:pageshadow="2"
     inkscape:pageopacity="0.0"
     inkscape:pagecheckerboard="0"
     showgrid="false"
     inkscape:lockguides="true"
     fit-margin-top="0"
     fit-margin-left="0"
     fit-margin-right="0"
     fit-margin-bottom="0"
     inkscape:zoom="5.953125"
     inkscape:cx="16.293963"
     inkscape:cy="25.952756"
     inkscape:window-width="1312"
     inkscape:window-height="847"
     inkscape:window-x="1709"
     inkscape:window-y="223"
     inkscape:window-maximized="0"
     inkscape:current-layer="svg19" />
  <g
     fill="none"
     fill-rule="nonzero"
     id="g17">
    <circle
       cx="26"
       cy="26"
       r="18"
       fill="#54bad1"
       id="circle9" />
    <path
       fill="#54bad1"
       d="M 26,52 C 11.7,52 0,40.3 0,26 0,11.7 11.7,0 26,0 40.3,0 52,11.7 52,26 52,40.3 40.3,52 26,52 Z M 26,4 C 13.9,4 4,13.9 4,26 4,38.1 13.9,48 26,48 38.1,48 48,38.1 48,26 48,13.9 38.1,4 26,4 Z"
       id="path11" />
    <path
       fill="#ffffff"
       d="m 33.778,25.01 c -0.675,-0.561 -1.548,-0.741 -2.583,-0.768 1.034,-1.05 1.29,-2.308 0.644,-3.846 -0.267,-0.57 -0.504,-1.04 -0.903,-1.357 -0.399,-0.316 -0.798,-0.632 -1.33,-0.695 a 4.532,4.532 0 0 0 -1.594,-0.19 c -0.503,0.037 -1.196,0.128 -1.889,0.22 l -0.941,-3.285 -1.898,0.545 0.913,3.184 -1.519,0.435 -0.941,-3.284 -1.898,0.545 0.941,3.284 -1.234,0.353 -2.657,0.762 0.628,2.19 1.423,-0.409 c 0.598,-0.063 1.064,0.126 1.33,0.696 l 1.084,3.782 0.19,-0.055 -0.19,0.055 1.512,5.274 c 0.02,0.425 -0.085,0.778 -0.56,0.914 l -1.328,0.381 0.306,2.497 2.562,-0.734 c 0.19,-0.055 0.38,-0.11 0.664,-0.19 0.285,-0.083 0.57,-0.164 0.665,-0.191 l 0.97,3.383 1.898,-0.544 -0.942,-3.284 1.519,-0.436 0.941,3.284 1.898,-0.544 -0.97,-3.383 c 0.664,-0.19 1.3,-0.48 1.746,-0.716 0.541,-0.263 0.987,-0.499 1.376,-0.933 0.417,-0.335 0.711,-0.743 1.005,-1.15 0.2,-0.38 0.37,-0.86 0.512,-1.44 0.047,-0.551 0.094,-1.103 -0.105,-1.8 -0.03,-1.176 -0.476,-2.017 -1.245,-2.55 z m -10.32,-3.395 0.474,-0.137 0.665,-0.19 0.759,-0.218 c 0.285,-0.081 0.598,-0.064 0.788,-0.118 0.19,-0.054 0.503,-0.036 0.721,0.009 0.313,0.017 0.532,0.063 0.684,0.234 0.218,0.045 0.37,0.217 0.55,0.489 0.152,0.171 0.333,0.443 0.419,0.741 0.057,0.2 0.142,0.498 0.104,0.724 -0.037,0.226 -0.075,0.453 -0.237,0.606 -0.16,0.154 -0.199,0.38 -0.36,0.535 -0.161,0.154 -0.322,0.307 -0.512,0.362 a 1.845,1.845 0 0 1 -0.636,0.29 c -0.19,0.054 -0.351,0.208 -0.636,0.29 l -0.664,0.19 -0.57,0.164 -0.474,0.136 z m 7.883,7.432 c -0.038,0.226 -0.076,0.452 -0.142,0.579 -0.067,0.127 -0.2,0.38 -0.36,0.534 l -0.485,0.462 c -0.16,0.154 -0.446,0.235 -0.607,0.39 -0.256,0.18 -0.446,0.235 -0.73,0.317 -0.19,0.054 -0.475,0.136 -0.731,0.317 l -0.665,0.19 -0.569,0.164 -0.474,0.136 -1.285,-4.478 0.57,-0.164 0.854,-0.245 0.854,-0.245 c 0.38,-0.108 0.693,-0.09 0.978,-0.172 0.313,0.018 0.598,-0.064 0.91,-0.046 0.314,0.018 0.627,0.036 0.874,0.18 0.247,0.145 0.494,0.29 0.646,0.461 0.152,0.172 0.332,0.443 0.418,0.742 -0.076,0.452 -0.019,0.651 -0.056,0.878 z"
       id="path13" />
  </g>
</svg>
