<?xml version="1.0" encoding="UTF-8" standalone="no"?>
<!DOCTYPE svg PUBLIC "-//W3C//DTD SVG 1.1//EN" "http://www.w3.org/Graphics/SVG/1.1/DTD/svg11.dtd">
<svg width="100%" height="100%" viewBox="0 0 237 237" version="1.1" xmlns="http://www.w3.org/2000/svg" xmlns:xlink="http://www.w3.org/1999/xlink" xml:space="preserve" xmlns:serif="http://www.serif.com/" style="fill-rule:evenodd;clip-rule:evenodd;stroke-linejoin:round;stroke-miterlimit:2;">
    <rect x="0" y="0" width="236.515" height="236.515" style="fill:white;"/>
    <g id="Artboard1" transform="matrix(1,0,0,1,76.5961,103.785)">
        <rect x="-76.596" y="-103.785" width="236.515" height="236.515" style="fill:none;"/>
        <g transform="matrix(1.11935,0,0,1.11935,-65.796,-14.6301)">
            <circle cx="26" cy="26" r="18" style="fill:rgb(84,186,209);"/>
            <path d="M26,52C11.7,52 0,40.3 0,26C0,11.7 11.7,0 26,0C40.3,0 52,11.7 52,26C52,40.3 40.3,52 26,52ZM26,4C13.9,4 4,13.9 4,26C4,38.1 13.9,48 26,48C38.1,48 48,38.1 48,26C48,13.9 38.1,4 26,4Z" style="fill:rgb(84,186,209);fill-rule:nonzero;"/>
            <path d="M33.778,25.01C33.103,24.449 32.23,24.269 31.195,24.242C32.229,23.192 32.485,21.934 31.839,20.396C31.572,19.826 31.335,19.356 30.936,19.039C30.537,18.723 30.138,18.407 29.606,18.344C29.09,18.186 28.55,18.122 28.012,18.154C27.509,18.191 26.816,18.282 26.123,18.374L25.182,15.089L23.284,15.634L24.197,18.818L22.678,19.253L21.737,15.969L19.839,16.514L20.78,19.798L19.546,20.151L16.889,20.913L17.517,23.103L18.94,22.694C19.538,22.631 20.004,22.82 20.27,23.39L21.354,27.172L21.544,27.117L21.354,27.172L22.866,32.446C22.886,32.871 22.781,33.224 22.306,33.36L20.978,33.741L21.284,36.238L23.846,35.504C24.036,35.449 24.226,35.394 24.51,35.314C24.795,35.231 25.08,35.15 25.175,35.123L26.145,38.506L28.043,37.962L27.101,34.678L28.62,34.242L29.561,37.526L31.459,36.982L30.489,33.599C31.153,33.409 31.789,33.119 32.235,32.883C32.776,32.62 33.222,32.384 33.611,31.95C34.028,31.615 34.322,31.207 34.616,30.8C34.816,30.42 34.986,29.94 35.128,29.36C35.175,28.809 35.222,28.257 35.023,27.56C34.993,26.384 34.547,25.543 33.778,25.01ZM23.458,21.615L23.932,21.478L24.597,21.288L25.356,21.07C25.641,20.989 25.954,21.006 26.144,20.952C26.334,20.898 26.647,20.916 26.865,20.961C27.178,20.978 27.397,21.024 27.549,21.195C27.767,21.24 27.919,21.412 28.099,21.684C28.251,21.855 28.432,22.127 28.518,22.425C28.575,22.625 28.66,22.923 28.622,23.149C28.585,23.375 28.547,23.602 28.385,23.755C28.225,23.909 28.186,24.135 28.025,24.29C27.864,24.444 27.703,24.597 27.513,24.652C27.321,24.788 27.106,24.887 26.877,24.942C26.687,24.996 26.526,25.15 26.241,25.232L25.577,25.422L25.007,25.586L24.533,25.722L23.458,21.615ZM31.341,29.047C31.303,29.273 31.265,29.499 31.199,29.626C31.132,29.753 30.999,30.006 30.839,30.16L30.354,30.622C30.194,30.776 29.908,30.857 29.747,31.012C29.491,31.192 29.301,31.247 29.017,31.329C28.827,31.383 28.542,31.465 28.286,31.646L27.621,31.836L27.052,32L26.578,32.136L25.293,27.658L25.863,27.494L27.571,27.004C27.951,26.896 28.264,26.914 28.549,26.832C28.862,26.85 29.147,26.768 29.459,26.786C29.773,26.804 30.086,26.822 30.333,26.966C30.58,27.111 30.827,27.256 30.979,27.427C31.131,27.599 31.311,27.87 31.397,28.169C31.321,28.621 31.378,28.82 31.341,29.047Z" style="fill:white;fill-rule:nonzero;"/>
            <path d="M78.747,31.715L76.54,31.715L75.136,28.487L67.51,28.487L66.206,31.715L64,31.715L70.22,17.19L72.627,17.19L78.747,31.715ZM74.633,26.873L71.423,18.993L68.113,26.873L74.633,26.873ZM98.107,31.715L96.201,31.715L87.273,20.133L87.273,31.715L85.367,31.715L85.367,17.19L87.373,17.19L96.201,28.582L96.201,17.19L98.107,17.19L98.107,31.715ZM112.551,31.715L110.545,31.715L110.545,25.545L104.527,17.095L106.734,17.095L111.549,23.835L116.364,17.095L118.571,17.095L112.551,25.545L112.551,31.715ZM132.213,32C129.906,32 127.9,31.335 126.395,29.911C124.79,28.487 124.088,26.684 124.088,24.5C124.088,22.316 124.89,20.513 126.395,19.089C128,17.665 129.906,17 132.213,17C135.123,17 137.229,18.14 138.633,20.513L135.824,21.842C135.524,21.272 135.022,20.702 134.32,20.322C133.618,19.943 132.915,19.753 132.213,19.753C130.809,19.753 129.705,20.228 128.803,21.083C127.9,22.032 127.398,23.171 127.398,24.5C127.398,25.924 127.9,27.063 128.803,27.918C129.705,28.868 130.909,29.247 132.213,29.247C133.016,29.247 133.718,29.057 134.32,28.677C134.922,28.297 135.423,27.727 135.824,27.158L138.634,28.488C137.229,30.766 135.022,32 132.214,32L132.213,32ZM152.476,32C150.169,32 148.263,31.335 146.759,29.911C145.254,28.487 144.451,26.684 144.451,24.5C144.451,22.316 145.254,20.513 146.759,19.089C148.263,17.665 150.169,17 152.476,17C154.784,17 156.79,17.665 158.295,19.089C159.799,20.513 160.602,22.316 160.602,24.5C160.602,26.684 159.799,28.487 158.295,29.911C156.79,31.335 154.784,32 152.476,32ZM149.066,27.918C149.969,28.868 151.072,29.247 152.476,29.247C153.881,29.247 154.984,28.772 155.887,27.917C156.79,26.968 157.191,25.829 157.191,24.5C157.191,23.076 156.79,21.937 155.887,21.082C154.984,20.132 153.881,19.753 152.477,19.753C151.072,19.753 149.969,20.228 149.066,21.083C148.163,22.032 147.762,23.171 147.762,24.5C147.762,25.83 148.163,26.968 149.066,27.918ZM170.633,31.715L167.323,31.715L167.323,17.19L170.633,17.19L170.633,31.715ZM192,31.715L188.79,31.715L181.467,22.222L181.467,31.715L178.157,31.715L178.157,17.19L181.567,17.19L188.69,26.304L188.69,17.19L192,17.19L192,31.715Z" style="fill-rule:nonzero;"/>
        </g>
    </g>
</svg>
