<?xml version="1.0" encoding="UTF-8" standalone="no"?><!DOCTYPE svg PUBLIC "-//W3C//DTD SVG 1.1//EN" "http://www.w3.org/Graphics/SVG/1.1/DTD/svg11.dtd"><svg width="100%" height="100%" viewBox="0 0 751 751" version="1.1" xmlns="http://www.w3.org/2000/svg" xmlns:xlink="http://www.w3.org/1999/xlink" xml:space="preserve" xmlns:serif="http://www.serif.com/" style="fill-rule:evenodd;clip-rule:evenodd;stroke-linejoin:round;stroke-miterlimit:2;"><rect id="Artboard2" x="0" y="0" width="750.82" height="750.82" style="fill:none;"/><clipPath id="_clip1"><rect x="0" y="0" width="750.82" height="750.82"/></clipPath><g clip-path="url(#_clip1)"><g id="Artboard1"><g><rect x="-120.832" y="-208.333" width="1041.66" height="1041.67" style="fill:#fff;"/></g><g><g><g><path d="M592.994,203.619c-41.303,-42.451 -65.397,-65.398 -95.227,-65.398c-29.83,0 -53.923,22.947 -95.227,65.398c-41.303,42.45 -65.396,65.397 -65.396,95.227c-0,29.83 22.946,53.924 65.396,95.227c41.304,42.451 65.397,65.397 95.227,65.397c29.83,0 53.924,-22.946 95.227,-65.397c42.451,-41.303 65.397,-64.249 65.397,-95.227c-0,-30.978 -22.946,-53.924 -65.397,-95.227Z" style="fill:#b2c3ff;fill-rule:nonzero;"/></g><g><path d="M179.962,419.314c-1.148,1.148 -1.148,2.295 -2.295,3.442l0,4.59c0,1.147 1.147,2.294 1.147,4.589c1.148,1.147 2.295,2.294 3.442,3.442c30.978,19.504 66.545,27.535 103.258,24.093c35.567,-3.441 69.987,-19.504 95.227,-44.745c25.241,-25.241 42.451,-58.513 47.04,-94.08c4.589,-35.567 -3.442,-72.281 -21.799,-103.259c-18.357,-30.977 -47.04,-55.071 -81.459,-67.691c-34.419,-12.621 -71.133,-13.768 -105.553,-2.295c-34.419,11.473 -64.249,33.272 -83.753,63.103c-20.652,29.83 -29.831,66.544 -26.389,102.111c0,1.147 0,3.442 1.148,4.589c1.147,1.147 1.147,2.295 3.442,3.442c1.147,1.147 2.294,1.147 4.589,2.295l4.589,-0c3.442,-0 5.737,-2.295 8.031,-4.59c2.295,-2.294 2.295,-5.736 2.295,-8.031c-2.295,-30.977 5.737,-61.955 24.094,-87.196c17.209,-25.241 43.597,-44.745 72.28,-53.924c29.83,-9.178 61.955,-8.031 90.638,2.295c28.683,11.473 53.924,30.977 69.986,58.513c16.062,26.388 22.946,57.366 18.357,88.343c-3.442,30.978 -18.357,59.661 -40.156,81.46c-21.799,21.799 -50.482,35.567 -81.459,39.009c-30.978,3.442 -61.955,-3.442 -88.343,-19.505c-2.295,-1.147 -5.737,-2.294 -9.179,-2.294c-4.589,-2.295 -6.884,-0 -9.178,2.294" style="fill:#3e68ff;fill-rule:nonzero;"/></g><g><path d="M342.88,225.418c1.147,-1.148 2.295,-2.295 2.295,-3.442c-0,-1.148 1.147,-2.295 1.147,-4.59c0,-1.147 0,-3.442 -1.147,-4.589c-1.148,-1.147 -1.148,-2.294 -2.295,-3.442c-12.62,-10.326 -26.388,-17.21 -42.45,-21.799c-16.063,-4.589 -32.125,-5.736 -48.188,-3.442c-16.062,2.295 -30.977,8.031 -44.745,16.063c-13.767,8.031 -25.241,19.504 -34.419,33.272c-9.179,13.768 -16.062,29.83 -18.357,47.04c-2.295,17.21 -1.147,34.419 3.442,50.482c4.589,16.062 13.768,30.977 25.241,43.598c11.473,12.62 25.241,22.946 41.303,28.683c19.504,8.031 40.156,10.326 60.807,8.031c20.652,-2.295 40.156,-11.473 56.219,-25.241c1.147,-1.147 2.294,-2.295 2.294,-3.442c1.148,-1.147 1.148,-2.294 1.148,-4.589c-0,-1.147 -0,-3.442 -1.148,-4.589c-1.147,-1.148 -1.147,-2.295 -2.294,-3.442c-2.295,-2.295 -4.589,-3.442 -8.031,-3.442c-3.442,-0 -5.737,1.147 -8.032,2.294c-10.325,8.032 -21.799,13.768 -34.419,17.21c-12.62,3.442 -25.241,3.442 -37.861,2.295c-12.621,-2.295 -24.094,-6.884 -35.567,-13.768c-10.326,-6.884 -19.504,-16.062 -27.535,-26.388c-8.032,-11.474 -12.621,-24.094 -14.915,-37.862c-2.295,-13.768 -1.148,-27.535 3.441,-40.156c4.59,-12.62 10.326,-25.241 19.505,-35.567c9.178,-10.326 20.651,-18.357 33.272,-22.946c14.915,-5.737 32.125,-8.031 48.187,-5.737c16.062,2.295 32.125,9.179 44.745,18.357c2.295,2.295 5.737,3.442 8.031,2.295c4.59,2.295 8.031,1.147 10.326,-1.147" style="fill:#3e68ff;fill-rule:nonzero;"/></g></g><g><path d="M643.639,554.736c2.362,1.771 3.543,4.133 4.724,6.495c1.181,2.361 1.771,5.313 1.771,8.266l-44.282,-0c-0,-2.953 1.181,-5.905 2.362,-8.266c1.18,-2.362 2.952,-4.724 5.313,-6.495c4.133,-3.543 9.447,-5.314 15.352,-5.314c5.313,-0 10.627,1.771 14.76,5.314Zm5.905,50.777c5.313,-4.133 8.856,-9.447 10.627,-15.942l-11.808,0c-1.181,3.543 -4.133,7.085 -7.085,8.857c-3.543,2.361 -8.266,3.542 -12.399,3.542c-3.543,0 -7.676,-1.181 -10.628,-2.361c-3.543,-1.772 -6.495,-4.724 -8.266,-7.676c-2.362,-4.133 -3.543,-8.266 -3.543,-12.989l56.091,-0l-0,-6.495c-0,-5.314 -1.181,-11.218 -4.133,-15.942c-2.952,-4.723 -6.495,-8.856 -11.218,-11.808c-5.314,-2.953 -11.218,-4.724 -17.713,-4.724c-6.495,0 -12.399,1.181 -18.303,4.724c-5.314,2.952 -9.447,7.675 -12.399,12.399c-2.952,5.904 -4.724,12.399 -4.133,18.893c-0,6.495 1.181,12.99 4.723,18.894c2.952,5.314 7.085,9.447 12.399,12.399c5.314,2.952 11.809,4.724 17.713,4.724c6.495,-0 14.17,-1.772 20.075,-6.495Zm-59.634,4.723l0,-10.037l-7.675,0c-4.724,0 -7.676,-0.59 -9.447,-2.362c-1.771,-1.771 -2.952,-4.723 -2.952,-8.856l-0,-37.788l20.665,0l-0,-10.037l-20.665,-0l-0,-16.532l-10.628,-0l-1.771,16.532l-12.399,-0l-0,10.037l12.399,0l-0,37.788c-0,8.266 1.771,13.58 5.314,16.532c4.133,3.542 10.037,4.723 15.351,4.723l11.808,0Zm-92.697,-11.808c-1.181,-1.181 -2.361,-2.362 -2.952,-4.133c-0.59,-1.772 -1.181,-2.952 -1.181,-4.724c0,-1.771 0.591,-3.542 1.181,-4.723c0.591,-1.771 1.771,-2.952 2.952,-4.133c2.952,-2.362 7.676,-3.543 14.761,-3.543l18.303,0c0,4.133 -0.59,8.266 -2.362,11.809c-1.771,3.542 -4.133,6.495 -7.675,8.856c-3.543,2.362 -7.676,3.543 -11.809,3.543c-4.133,0.59 -8.266,-0.591 -11.218,-2.952Zm24.798,9.447c3.543,-2.362 6.495,-5.905 8.857,-10.038l0.59,12.399l10.628,0l-0,-42.511c-0,-8.856 -2.362,-15.351 -7.676,-20.665c-4.723,-5.314 -12.399,-7.675 -22.436,-7.675c-4.723,-0 -9.447,1.181 -14.17,2.952c-4.133,1.771 -8.266,4.723 -11.218,7.675c-2.953,3.543 -4.724,8.266 -5.314,12.399l12.399,0c0.59,-1.771 1.181,-4.133 2.361,-5.313c1.181,-1.772 2.362,-2.953 4.133,-4.133c3.543,-2.362 7.676,-3.543 11.809,-3.543c2.362,-0 4.723,-0 7.085,1.181c2.362,0.59 4.133,1.771 5.904,3.542c2.952,2.953 4.724,7.676 4.724,13.58l-0,1.181l-18.894,0c-9.447,0 -17.122,1.771 -22.436,5.904c-2.952,1.772 -4.724,4.134 -6.495,7.086c-1.181,2.952 -2.362,5.904 -1.771,9.447c-0,3.542 1.181,7.085 2.952,10.627c1.771,3.543 5.314,5.905 8.856,7.676c4.724,2.362 9.447,2.952 14.761,2.952c5.904,-0.59 11.218,-1.771 15.351,-4.723Zm-147.016,2.361l-0,-36.016c-0,-8.266 1.771,-14.17 5.904,-18.303c1.771,-1.772 3.543,-3.543 6.495,-4.724c2.361,-1.181 5.314,-1.771 7.675,-1.771c2.362,-0 4.724,-0 7.085,1.181c2.362,1.181 4.133,2.362 5.905,4.133c2.952,3.542 4.133,8.856 4.133,15.941l-0,39.559l11.808,0l0,-36.016c0,-8.266 1.771,-14.17 5.904,-18.303c1.772,-1.772 4.133,-3.543 6.495,-4.724c2.362,-1.181 5.314,-1.771 7.676,-1.771c2.361,-0 4.723,-0 7.085,1.181c2.362,1.181 4.133,2.362 5.904,4.133c2.952,3.542 4.133,8.856 4.133,15.941l0,39.559l11.809,0l-0,-40.149c-0,-10.037 -2.362,-17.713 -7.676,-23.027c-5.314,-5.314 -11.808,-7.675 -20.074,-7.675c-4.724,-0 -10.038,1.181 -14.171,3.542c-4.133,2.362 -7.675,5.905 -10.037,10.038c-1.771,-4.133 -5.314,-7.676 -9.447,-10.038c-4.723,-2.361 -9.447,-3.542 -14.17,-3.542c-4.723,-0 -8.856,1.181 -12.989,2.952c-3.543,1.771 -7.086,4.723 -8.857,8.856l-0.59,-10.037l-10.628,-0l0,69.08l10.628,0Zm-74.394,0l-0,-36.016c-0,-8.266 1.771,-14.17 5.904,-18.303c1.771,-2.362 4.133,-3.543 7.085,-4.724c2.362,-1.181 5.314,-1.771 8.266,-1.771c12.399,-0 18.304,7.085 18.304,21.846l-0,38.968l11.808,0l0,-40.149c0,-10.037 -2.362,-17.713 -7.676,-23.027c-2.361,-2.361 -5.904,-4.723 -9.446,-5.904c-3.543,-1.181 -7.085,-1.771 -10.628,-1.771c-5.314,-0 -10.037,1.181 -14.761,3.542c-4.133,2.362 -7.675,5.905 -10.037,10.038l-0.59,-12.399l-10.628,-0l-0,69.67l12.399,0Zm-25.389,-69.08l-11.808,-0l-0,69.08l11.808,0l0,-69.08Zm-69.67,57.862c-3.543,-2.362 -6.495,-5.314 -8.266,-8.856c-2.362,-4.724 -3.543,-9.447 -3.543,-14.761c0,-4.724 1.181,-10.037 3.543,-14.761c1.771,-3.542 4.723,-6.495 8.266,-8.856c3.543,-1.772 7.676,-2.952 11.218,-2.952c4.133,-0 7.676,1.18 11.218,2.952c3.543,2.361 6.495,5.314 8.266,8.856c2.362,4.724 3.543,9.447 2.952,14.761c0,5.314 -1.18,10.037 -3.542,14.761c-1.771,3.542 -4.724,6.494 -8.266,8.856c-3.543,1.771 -7.676,2.952 -11.218,2.952c-3.543,0 -7.085,-1.181 -10.628,-2.952Zm29.521,8.266c5.314,-2.952 10.038,-7.085 12.99,-12.399c2.952,-5.904 4.723,-12.399 4.723,-18.894c0,-6.494 -1.771,-12.989 -4.723,-18.893c-2.952,-5.314 -7.085,-9.447 -12.399,-12.399c-5.314,-2.953 -11.809,-4.724 -17.713,-4.724c-6.495,0 -12.399,1.181 -18.303,4.724c-5.314,2.952 -10.038,7.085 -12.99,12.399c-2.952,5.904 -4.723,12.399 -4.723,18.893c-0,6.495 1.181,12.99 4.723,18.894c2.952,5.314 7.085,9.447 12.399,12.399c5.314,2.952 11.809,4.724 17.713,4.724c6.495,-0 12.399,-1.772 18.303,-4.724Zm-70.851,-1.771c5.904,-4.133 9.447,-10.037 10.628,-17.123l-12.399,0c-0.591,1.772 -1.181,4.133 -2.362,5.905c-1.181,1.771 -2.952,2.952 -4.723,4.133c-4.133,2.361 -8.266,3.542 -12.99,3.542c-4.133,0 -7.675,-1.181 -11.218,-2.952c-3.542,-2.362 -6.495,-5.314 -8.266,-8.856c-2.362,-4.724 -3.542,-9.447 -3.542,-14.761c-0,-4.724 1.18,-10.037 3.542,-14.761c1.771,-3.542 4.724,-6.495 8.266,-8.856c3.543,-1.772 7.676,-2.952 11.809,-2.952c4.723,-0 8.856,1.18 12.989,3.542c1.771,1.181 3.543,2.362 4.724,4.133c1.18,1.771 1.771,3.543 2.361,5.904l12.399,0c-1.181,-7.085 -5.314,-12.989 -10.627,-17.122c-5.905,-4.133 -13.58,-6.495 -21.256,-6.495c-6.495,0 -12.399,1.181 -18.303,4.724c-5.314,2.952 -9.447,7.085 -12.399,12.399c-2.952,5.904 -4.724,12.399 -4.724,18.893c0,6.495 1.772,12.99 4.724,18.894c2.952,5.314 7.085,9.447 12.399,12.399c5.314,2.952 11.808,4.724 18.303,4.724c7.085,1.181 14.761,-1.181 20.665,-5.314" style="fill:#3e68ff;fill-rule:nonzero;"/></g></g></g></g></svg>