<?xml version="1.0" encoding="UTF-8" standalone="no"?>
<!DOCTYPE svg PUBLIC "-//W3C//DTD SVG 1.1//EN" "http://www.w3.org/Graphics/SVG/1.1/DTD/svg11.dtd">
<svg width="100%" height="100%" viewBox="0 0 250 250" version="1.1" xmlns="http://www.w3.org/2000/svg" xmlns:xlink="http://www.w3.org/1999/xlink" xml:space="preserve" xmlns:serif="http://www.serif.com/" style="fill-rule:evenodd;clip-rule:evenodd;stroke-linejoin:round;stroke-miterlimit:2;">
    <g id="Artboard1" transform="matrix(6.33335,0,0,8.93718,-170.384,173.67)">
        <rect x="26.903" y="-19.432" width="39.474" height="27.973" style="fill:none;"/>
        <g transform="matrix(0.157894,0,0,0.111892,26.9027,-19.4323)">
            <rect x="0" y="0" width="250" height="250" style="fill:white;"/>
        </g>
        <g transform="matrix(0.240818,0,0,0.170657,28.0919,-16.0322)">
            <g transform="matrix(1,0,0,1,-26,20)">
                <path d="M70.3,33.7C66.7,30 64.6,28 62,28C59.4,28 57.3,30 53.7,33.7C50.1,37.4 48,39.4 48,42C48,44.6 50,46.7 53.7,50.3C57.3,54 59.4,56 62,56C64.6,56 66.7,54 70.3,50.3C74,46.7 76,44.7 76,42C76,39.3 74,37.3 70.3,33.7Z" style="fill:rgb(178,195,255);fill-rule:nonzero;"/>
            </g>
            <g transform="matrix(1,0,0,1,-26,20)">
                <path d="M34.3,52.5C34.2,52.6 34.2,52.7 34.1,52.8L34.1,53.2C34.1,53.3 34.2,53.4 34.2,53.6C34.3,53.7 34.4,53.8 34.5,53.9C37.2,55.6 40.3,56.3 43.5,56C46.6,55.7 49.6,54.3 51.8,52.1C54,49.9 55.5,47 55.9,43.9C56.3,40.8 55.6,37.6 54,34.9C52.4,32.2 49.9,30.1 46.9,29C43.9,27.9 40.7,27.8 37.7,28.8C34.7,29.8 32.1,31.7 30.4,34.3C28.6,36.9 27.8,40.1 28.1,43.2C28.1,43.3 28.1,43.5 28.2,43.6C28.3,43.7 28.3,43.8 28.5,43.9C28.6,44 28.7,44 28.9,44.1L29.3,44.1C29.6,44.1 29.8,43.9 30,43.7C30.2,43.5 30.2,43.2 30.2,43C30,40.3 30.7,37.6 32.3,35.4C33.8,33.2 36.1,31.5 38.6,30.7C41.2,29.9 44,30 46.5,30.9C49,31.9 51.2,33.6 52.6,36C54,38.3 54.6,41 54.2,43.7C53.9,46.4 52.6,48.9 50.7,50.8C48.8,52.7 46.3,53.9 43.6,54.2C40.9,54.5 38.2,53.9 35.9,52.5C35.7,52.4 35.4,52.3 35.1,52.3C34.7,52.1 34.5,52.3 34.3,52.5" style="fill:rgb(62,104,255);fill-rule:nonzero;"/>
            </g>
            <g transform="matrix(1,0,0,1,-26,20)">
                <path d="M48.5,35.6C48.6,35.5 48.7,35.4 48.7,35.3C48.7,35.2 48.8,35.1 48.8,34.9C48.8,34.8 48.8,34.6 48.7,34.5C48.6,34.4 48.6,34.3 48.5,34.2C47.4,33.3 46.2,32.7 44.8,32.3C43.4,31.9 42,31.8 40.6,32C39.2,32.2 37.9,32.7 36.7,33.4C35.5,34.1 34.5,35.1 33.7,36.3C32.9,37.5 32.3,38.9 32.1,40.4C31.9,41.9 32,43.4 32.4,44.8C32.8,46.2 33.6,47.5 34.6,48.6C35.6,49.7 36.8,50.6 38.2,51.1C39.9,51.8 41.7,52 43.5,51.8C45.3,51.6 47,50.8 48.4,49.6C48.5,49.5 48.6,49.4 48.6,49.3C48.7,49.2 48.7,49.1 48.7,48.9C48.7,48.8 48.7,48.6 48.6,48.5C48.5,48.4 48.5,48.3 48.4,48.2C48.2,48 48,47.9 47.7,47.9C47.4,47.9 47.2,48 47,48.1C46.1,48.8 45.1,49.3 44,49.6C42.9,49.9 41.8,49.9 40.7,49.8C39.6,49.6 38.6,49.2 37.6,48.6C36.7,48 35.9,47.2 35.2,46.3C34.5,45.3 34.1,44.2 33.9,43C33.7,41.8 33.8,40.6 34.2,39.5C34.6,38.4 35.1,37.3 35.9,36.4C36.7,35.5 37.7,34.8 38.8,34.4C40.1,33.9 41.6,33.7 43,33.9C44.4,34.1 45.8,34.7 46.9,35.5C47.1,35.7 47.4,35.8 47.6,35.7C48,35.9 48.3,35.8 48.5,35.6" style="fill:rgb(62,104,255);fill-rule:nonzero;"/>
            </g>
            <g transform="matrix(1,0,0,1,-26,20)">
                <path d="M174.8,39.6C175.2,39.9 175.4,40.3 175.6,40.7C175.8,41.1 175.9,41.6 175.9,42.1L168.4,42.1C168.4,41.6 168.6,41.1 168.8,40.7C169,40.3 169.3,39.9 169.7,39.6C170.4,39 171.3,38.7 172.3,38.7C173.2,38.7 174.1,39 174.8,39.6ZM175.8,48.2C176.7,47.5 177.3,46.6 177.6,45.5L175.6,45.5C175.4,46.1 174.9,46.7 174.4,47C173.8,47.4 173,47.6 172.3,47.6C171.7,47.6 171,47.4 170.5,47.2C169.9,46.9 169.4,46.4 169.1,45.9C168.7,45.2 168.5,44.5 168.5,43.7L178,43.7L178,42.6C178,41.7 177.8,40.7 177.3,39.9C176.8,39.1 176.2,38.4 175.4,37.9C174.5,37.4 173.5,37.1 172.4,37.1C171.3,37.1 170.3,37.3 169.3,37.9C168.4,38.4 167.7,39.2 167.2,40C166.7,41 166.4,42.1 166.5,43.2C166.5,44.3 166.7,45.4 167.3,46.4C167.8,47.3 168.5,48 169.4,48.5C170.3,49 171.4,49.3 172.4,49.3C173.5,49.3 174.8,49 175.8,48.2ZM165.7,49L165.7,47.3L164.4,47.3C163.6,47.3 163.1,47.2 162.8,46.9C162.5,46.6 162.3,46.1 162.3,45.4L162.3,39L165.8,39L165.8,37.3L162.3,37.3L162.3,34.5L160.5,34.5L160.2,37.3L158.1,37.3L158.1,39L160.2,39L160.2,45.4C160.2,46.8 160.5,47.7 161.1,48.2C161.8,48.8 162.8,49 163.7,49L165.7,49ZM150,47C149.8,46.8 149.6,46.6 149.5,46.3C149.4,46 149.3,45.8 149.3,45.5C149.3,45.2 149.4,44.9 149.5,44.7C149.6,44.4 149.8,44.2 150,44C150.5,43.6 151.3,43.4 152.5,43.4L155.6,43.4C155.6,44.1 155.5,44.8 155.2,45.4C154.9,46 154.5,46.5 153.9,46.9C153.3,47.3 152.6,47.5 151.9,47.5C151.2,47.6 150.5,47.4 150,47ZM154.2,48.6C154.8,48.2 155.3,47.6 155.7,46.9L155.8,49L157.6,49L157.6,41.8C157.6,40.3 157.2,39.2 156.3,38.3C155.5,37.4 154.2,37 152.5,37C151.7,37 150.9,37.2 150.1,37.5C149.4,37.8 148.7,38.3 148.2,38.8C147.7,39.4 147.4,40.2 147.3,40.9L149.4,40.9C149.5,40.6 149.6,40.2 149.8,40C150,39.7 150.2,39.5 150.5,39.3C151.1,38.9 151.8,38.7 152.5,38.7C152.9,38.7 153.3,38.7 153.7,38.9C154.1,39 154.4,39.2 154.7,39.5C155.2,40 155.5,40.8 155.5,41.8L155.5,42L152.3,42C150.7,42 149.4,42.3 148.5,43C148,43.3 147.7,43.7 147.4,44.2C147.2,44.7 147,45.2 147.1,45.8C147.1,46.4 147.3,47 147.6,47.6C147.9,48.2 148.5,48.6 149.1,48.9C149.9,49.3 150.7,49.4 151.6,49.4C152.6,49.3 153.5,49.1 154.2,48.6ZM129.3,49L129.3,42.9C129.3,41.5 129.6,40.5 130.3,39.8C130.6,39.5 130.9,39.2 131.4,39C131.8,38.8 132.3,38.7 132.7,38.7C133.1,38.7 133.5,38.7 133.9,38.9C134.3,39.1 134.6,39.3 134.9,39.6C135.4,40.2 135.6,41.1 135.6,42.3L135.6,49L137.6,49L137.6,42.9C137.6,41.5 137.9,40.5 138.6,39.8C138.9,39.5 139.3,39.2 139.7,39C140.1,38.8 140.6,38.7 141,38.7C141.4,38.7 141.8,38.7 142.2,38.9C142.6,39.1 142.9,39.3 143.2,39.6C143.7,40.2 143.9,41.1 143.9,42.3L143.9,49L145.9,49L145.9,42.2C145.9,40.5 145.5,39.2 144.6,38.3C143.7,37.4 142.6,37 141.2,37C140.4,37 139.5,37.2 138.8,37.6C138.1,38 137.5,38.6 137.1,39.3C136.8,38.6 136.2,38 135.5,37.6C134.7,37.2 133.9,37 133.1,37C132.3,37 131.6,37.2 130.9,37.5C130.3,37.8 129.7,38.3 129.4,39L129.3,37.3L127.5,37.3L127.5,49L129.3,49ZM116.7,49L116.7,42.9C116.7,41.5 117,40.5 117.7,39.8C118,39.4 118.4,39.2 118.9,39C119.3,38.8 119.8,38.7 120.3,38.7C122.4,38.7 123.4,39.9 123.4,42.4L123.4,49L125.4,49L125.4,42.2C125.4,40.5 125,39.2 124.1,38.3C123.7,37.9 123.1,37.5 122.5,37.3C121.9,37.1 121.3,37 120.7,37C119.8,37 119,37.2 118.2,37.6C117.5,38 116.9,38.6 116.5,39.3L116.4,37.2L114.6,37.2L114.6,49L116.7,49ZM112.4,37.3L110.4,37.3L110.4,49L112.4,49L112.4,37.3ZM100.6,47.1C100,46.7 99.5,46.2 99.2,45.6C98.8,44.8 98.6,44 98.6,43.1C98.6,42.3 98.8,41.4 99.2,40.6C99.5,40 100,39.5 100.6,39.1C101.2,38.8 101.9,38.6 102.5,38.6C103.2,38.6 103.8,38.8 104.4,39.1C105,39.5 105.5,40 105.8,40.6C106.2,41.4 106.4,42.2 106.3,43.1C106.3,44 106.1,44.8 105.7,45.6C105.4,46.2 104.9,46.7 104.3,47.1C103.7,47.4 103,47.6 102.4,47.6C101.8,47.6 101.2,47.4 100.6,47.1ZM105.6,48.5C106.5,48 107.3,47.3 107.8,46.4C108.3,45.4 108.6,44.3 108.6,43.2C108.6,42.1 108.3,41 107.8,40C107.3,39.1 106.6,38.4 105.7,37.9C104.8,37.4 103.7,37.1 102.7,37.1C101.6,37.1 100.6,37.3 99.6,37.9C98.7,38.4 97.9,39.1 97.4,40C96.9,41 96.6,42.1 96.6,43.2C96.6,44.3 96.8,45.4 97.4,46.4C97.9,47.3 98.6,48 99.5,48.5C100.4,49 101.5,49.3 102.5,49.3C103.6,49.3 104.6,49 105.6,48.5ZM93.6,48.2C94.6,47.5 95.2,46.5 95.4,45.3L93.3,45.3C93.2,45.6 93.1,46 92.9,46.3C92.7,46.6 92.4,46.8 92.1,47C91.4,47.4 90.7,47.6 89.9,47.6C89.2,47.6 88.6,47.4 88,47.1C87.4,46.7 86.9,46.2 86.6,45.6C86.2,44.8 86,44 86,43.1C86,42.3 86.2,41.4 86.6,40.6C86.9,40 87.4,39.5 88,39.1C88.6,38.8 89.3,38.6 90,38.6C90.8,38.6 91.5,38.8 92.2,39.2C92.5,39.4 92.8,39.6 93,39.9C93.2,40.2 93.3,40.5 93.4,40.9L95.5,40.9C95.3,39.7 94.6,38.7 93.7,38C92.7,37.3 91.4,36.9 90.1,36.9C89,36.9 88,37.1 87,37.7C86.1,38.2 85.4,38.9 84.9,39.8C84.4,40.8 84.1,41.9 84.1,43C84.1,44.1 84.4,45.2 84.9,46.2C85.4,47.1 86.1,47.8 87,48.3C87.9,48.8 89,49.1 90.1,49.1C91.3,49.3 92.6,48.9 93.6,48.2" style="fill:rgb(62,104,255);fill-rule:nonzero;"/>
            </g>
            <g transform="matrix(1,0,0,1,-26,20)">
                <path d="M112.2,33.6C111.8,33.2 111.6,33 111.4,33C111.2,33 110.9,33.2 110.6,33.6C110.2,34 110,34.2 110,34.4C110,34.7 110.2,34.9 110.6,35.2C111,35.6 111.2,35.8 111.4,35.8C111.6,35.8 111.9,35.6 112.2,35.2C112.6,34.8 112.8,34.6 112.8,34.4C112.8,34.2 112.5,34 112.2,33.6Z" style="fill:rgb(62,104,255);fill-rule:nonzero;"/>
            </g>
        </g>
    </g>
</svg>
