<?xml version="1.0" encoding="UTF-8" standalone="no"?>
<!DOCTYPE svg PUBLIC "-//W3C//DTD SVG 1.1//EN" "http://www.w3.org/Graphics/SVG/1.1/DTD/svg11.dtd">
<svg width="100%" height="100%" viewBox="0 0 350 150" version="1.1" xmlns="http://www.w3.org/2000/svg" xmlns:xlink="http://www.w3.org/1999/xlink" xml:space="preserve" xmlns:serif="http://www.serif.com/" style="fill-rule:evenodd;clip-rule:evenodd;stroke-linejoin:round;stroke-miterlimit:2;">
    <rect x="0" y="0" width="350" height="150" style="fill:white;"/>
    <g transform="matrix(2.18849,0,0,2.18849,8.75777,42.1693)">
        <path d="M43.325,6.68C39.677,3.031 37.649,1.005 35,1.005C32.351,1.005 30.324,3.031 26.675,6.68C23.027,10.329 21,12.355 21,15.003C21,17.651 23.028,19.681 26.675,23.328C30.322,26.975 32.351,29.003 35,29.003C37.649,29.003 39.678,26.977 43.325,23.328C46.972,19.679 49,17.652 49,15.003C49,12.354 46.972,10.322 43.325,6.68Z" style="fill:rgb(178,195,255);fill-rule:nonzero;"/>
        <path d="M7.306,25.488C7.229,25.591 7.173,25.709 7.142,25.834C7.112,25.959 7.107,26.089 7.129,26.216C7.151,26.343 7.198,26.464 7.268,26.573C7.338,26.681 7.43,26.773 7.537,26.845C10.204,28.525 13.361,29.257 16.495,28.92C19.629,28.583 22.559,27.199 24.808,24.99C27.058,22.781 28.496,19.878 28.89,16.75C29.284,13.622 28.611,10.453 26.98,7.755C25.348,5.058 22.854,2.99 19.901,1.886C16.948,0.782 13.709,0.708 10.708,1.674C7.707,2.64 5.121,4.591 3.367,7.211C1.613,9.831 0.794,12.966 1.044,16.108C1.055,16.24 1.093,16.367 1.156,16.483C1.219,16.599 1.305,16.7 1.41,16.78C1.514,16.86 1.634,16.918 1.762,16.949C1.89,16.98 2.024,16.983 2.153,16.96C2.416,16.913 2.651,16.769 2.813,16.558C2.976,16.347 3.054,16.082 3.032,15.817C2.845,13.117 3.572,10.432 5.095,8.195C6.618,5.959 8.85,4.299 11.431,3.484C14.011,2.669 16.791,2.746 19.323,3.702C21.855,4.658 23.991,6.438 25.389,8.755C26.787,11.073 27.365,13.793 27.029,16.478C26.694,19.164 25.465,21.658 23.54,23.561C21.615,25.463 19.107,26.663 16.417,26.967C13.728,27.271 11.015,26.662 8.714,25.237C8.491,25.095 8.223,25.042 7.963,25.087C7.702,25.132 7.468,25.273 7.306,25.481" style="fill:rgb(62,104,255);fill-rule:nonzero;"/>
        <path d="M21.462,8.615C21.557,8.526 21.631,8.418 21.681,8.298C21.731,8.179 21.755,8.05 21.752,7.92C21.749,7.79 21.719,7.663 21.663,7.546C21.607,7.429 21.527,7.325 21.428,7.241C20.341,6.353 19.08,5.703 17.727,5.331C16.373,4.958 14.957,4.872 13.569,5.078C12.181,5.284 10.85,5.777 9.663,6.526C8.476,7.276 7.459,8.264 6.675,9.429C5.85,10.661 5.309,12.062 5.091,13.53C4.874,14.998 4.985,16.495 5.418,17.914C5.85,19.334 6.593,20.639 7.592,21.736C8.591,22.833 9.821,23.694 11.194,24.256C12.877,24.95 14.716,25.177 16.518,24.912C18.319,24.648 20.016,23.902 21.428,22.754C21.527,22.669 21.607,22.565 21.663,22.448C21.719,22.33 21.749,22.202 21.752,22.073C21.756,21.943 21.731,21.814 21.681,21.694C21.631,21.574 21.557,21.466 21.462,21.376C21.269,21.197 21.017,21.094 20.753,21.085C20.489,21.077 20.232,21.165 20.027,21.332C19.151,22.016 18.144,22.511 17.068,22.788C15.993,23.066 14.871,23.119 13.774,22.944C12.677,22.769 11.628,22.371 10.691,21.773C9.755,21.175 8.951,20.391 8.331,19.47C7.668,18.48 7.234,17.356 7.06,16.178C6.885,15.001 6.975,13.799 7.322,12.66C7.669,11.521 8.265,10.473 9.067,9.593C9.868,8.713 10.856,8.022 11.957,7.57C13.279,7.024 14.722,6.838 16.14,7.031C17.557,7.223 18.898,7.787 20.027,8.665C20.232,8.833 20.489,8.92 20.753,8.912C21.017,8.904 21.269,8.801 21.462,8.621" style="fill:rgb(62,104,255);fill-rule:nonzero;"/>
        <path d="M147.846,12.58C148.196,12.895 148.476,13.277 148.667,13.704C148.858,14.13 148.955,14.591 148.954,15.056L141.429,15.056C141.453,14.573 141.58,14.1 141.802,13.668C142.024,13.236 142.336,12.854 142.718,12.547C143.447,11.978 144.355,11.673 145.287,11.683C146.224,11.657 147.136,11.978 147.842,12.58L147.846,12.58ZM148.773,21.2C149.662,20.512 150.307,19.567 150.616,18.5L148.615,18.5C148.377,19.123 147.947,19.659 147.384,20.032C146.761,20.428 146.029,20.627 145.287,20.601C144.652,20.603 144.026,20.448 143.468,20.153C142.88,19.839 142.389,19.376 142.045,18.814C141.641,18.137 141.421,17.37 141.405,16.586L150.924,16.586L150.924,15.478C150.926,14.544 150.691,13.624 150.24,12.801C149.79,11.973 149.12,11.279 148.301,10.793C147.394,10.265 146.352,9.999 145.297,10.027C144.22,10.007 143.156,10.271 142.219,10.793C141.329,11.3 140.606,12.044 140.133,12.938C139.615,13.934 139.358,15.04 139.384,16.157C139.354,17.28 139.615,18.392 140.143,19.39C140.623,20.277 141.346,21.016 142.229,21.525C143.151,22.046 144.202,22.312 145.267,22.291C146.521,22.342 147.754,21.962 148.752,21.217L148.773,21.2ZM138.676,21.99L138.676,20.293L137.42,20.293C136.651,20.293 136.11,20.163 135.806,19.905C135.501,19.648 135.348,19.146 135.348,18.406L135.348,11.968L138.867,11.968L138.867,10.295L135.348,10.295L135.348,7.49L133.589,7.49L133.323,10.295L131.25,10.295L131.25,11.968L133.323,11.968L133.323,18.406C133.323,19.758 133.636,20.694 134.263,21.214C135,21.767 135.915,22.043 136.842,21.99L138.676,21.99ZM122.969,20.046C122.746,19.869 122.568,19.643 122.449,19.387C122.33,19.131 122.274,18.851 122.285,18.57C122.281,18.282 122.346,17.997 122.474,17.738C122.601,17.478 122.788,17.251 123.02,17.074C123.51,16.673 124.351,16.472 125.538,16.472L128.616,16.472L128.616,16.495C128.617,17.178 128.469,17.854 128.182,18.476C127.907,19.088 127.47,19.617 126.916,20.009C126.336,20.412 125.637,20.62 124.926,20.601C124.233,20.643 123.547,20.446 122.986,20.046L122.969,20.046ZM127.228,21.578C127.854,21.146 128.363,20.572 128.712,19.905L128.832,22.003L130.641,22.003L130.641,14.799C130.641,13.349 130.219,12.189 129.376,11.318C128.532,10.448 127.278,10.012 125.613,10.01C124.792,10.008 123.978,10.163 123.219,10.469C122.487,10.761 121.838,11.22 121.324,11.807C120.808,12.415 120.501,13.167 120.445,13.955L122.518,13.955C122.573,13.62 122.697,13.3 122.881,13.012C123.066,12.725 123.307,12.477 123.592,12.282C124.193,11.888 124.904,11.686 125.627,11.703C126.028,11.684 126.429,11.744 126.807,11.88C127.184,12.016 127.529,12.224 127.823,12.493C128.37,13.022 128.644,13.795 128.644,14.819L128.644,14.959L125.411,14.959C123.815,14.959 122.545,15.282 121.601,15.926C121.149,16.233 120.783,16.648 120.539,17.131C120.295,17.613 120.18,18.149 120.205,18.687C120.201,19.315 120.368,19.933 120.688,20.477C121.033,21.051 121.545,21.512 122.159,21.799C122.934,22.155 123.786,22.325 124.642,22.295C125.566,22.342 126.482,22.098 127.255,21.598L127.228,21.578ZM102.272,21.99L102.272,15.93C102.272,14.578 102.589,13.536 103.223,12.804C103.508,12.457 103.869,12.178 104.281,11.988C104.692,11.797 105.142,11.701 105.597,11.707C106.004,11.684 106.41,11.755 106.784,11.915C107.157,12.075 107.486,12.319 107.745,12.627C108.242,13.24 108.491,14.153 108.491,15.364L108.491,21.99L110.516,21.99L110.516,15.93C110.516,14.578 110.834,13.536 111.47,12.804C111.758,12.455 112.123,12.175 112.537,11.985C112.952,11.795 113.406,11.7 113.864,11.707C114.27,11.684 114.677,11.755 115.049,11.915C115.422,12.075 115.751,12.319 116.009,12.627C116.508,13.24 116.758,14.153 116.758,15.364L116.758,21.99L118.772,21.99L118.772,15.15C118.772,13.408 118.346,12.115 117.493,11.272C116.64,10.428 115.5,10.008 114.073,10.01C113.24,10.005 112.421,10.217 111.699,10.622C110.986,11.02 110.395,11.598 109.989,12.296C109.662,11.573 109.109,10.97 108.409,10.576C107.658,10.181 106.815,9.986 105.963,10.01C105.207,10 104.46,10.178 103.794,10.529C103.154,10.87 102.621,11.376 102.252,11.991L102.105,10.291L100.275,10.291L100.275,22.003L102.272,21.99ZM89.699,21.99L89.699,15.93C89.699,14.578 90.041,13.536 90.725,12.804C91.046,12.45 91.443,12.169 91.886,11.979C92.33,11.79 92.81,11.697 93.294,11.707C95.346,11.707 96.372,12.926 96.372,15.364L96.372,21.99L98.397,21.99L98.397,15.15C98.397,13.408 97.975,12.115 97.131,11.272C96.686,10.845 96.155,10.513 95.573,10.296C94.99,10.079 94.368,9.981 93.745,10.01C92.881,9.996 92.03,10.216 91.286,10.646C90.572,11.06 89.994,11.667 89.62,12.393L89.494,10.278L87.647,10.278L87.647,21.99L89.699,21.99ZM85.362,10.278L83.337,10.278L83.337,21.99L85.362,21.99L85.362,10.278ZM73.613,20.069C73.003,19.713 72.506,19.197 72.18,18.58C71.815,17.812 71.626,16.975 71.626,16.127C71.626,15.28 71.815,14.443 72.18,13.674C72.509,13.056 73.011,12.541 73.627,12.189C74.214,11.861 74.879,11.691 75.556,11.693C76.224,11.693 76.881,11.864 77.461,12.189C78.074,12.539 78.571,13.055 78.894,13.674C79.279,14.435 79.466,15.278 79.438,16.127C79.467,16.977 79.277,17.821 78.884,18.58C78.556,19.201 78.054,19.717 77.437,20.069C76.849,20.396 76.184,20.567 75.508,20.564C74.842,20.566 74.189,20.395 73.613,20.069ZM78.555,21.505C79.463,21.004 80.21,20.266 80.714,19.373C81.233,18.367 81.504,17.256 81.504,16.129C81.504,15.002 81.233,13.891 80.714,12.885C80.218,11.993 79.479,11.254 78.579,10.75C77.653,10.241 76.605,9.981 75.542,9.997C74.475,9.982 73.423,10.242 72.491,10.75C71.584,11.253 70.837,11.992 70.333,12.885C69.784,13.88 69.511,14.997 69.539,16.127C69.511,17.257 69.78,18.375 70.322,19.373C70.818,20.264 71.557,21.002 72.457,21.505C73.391,22.001 74.436,22.261 75.499,22.261C76.562,22.261 77.608,22.001 78.542,21.505L78.555,21.505ZM66.598,21.17C67.555,20.468 68.209,19.442 68.431,18.292L66.358,18.292C66.29,18.641 66.15,18.972 65.946,19.266C65.743,19.56 65.48,19.811 65.175,20.002C64.521,20.411 63.758,20.621 62.982,20.605C62.312,20.606 61.654,20.43 61.077,20.096C60.462,19.738 59.961,19.219 59.63,18.597C59.265,17.828 59.076,16.991 59.076,16.144C59.076,15.297 59.265,14.459 59.63,13.691C59.949,13.092 60.431,12.59 61.022,12.24C61.613,11.891 62.292,11.707 62.982,11.71C63.758,11.693 64.521,11.903 65.175,12.312C65.476,12.5 65.737,12.744 65.94,13.031C66.143,13.319 66.286,13.643 66.358,13.986L68.431,13.986C68.208,12.827 67.55,11.793 66.587,11.084C65.551,10.342 64.29,9.96 63.006,10C61.929,9.983 60.866,10.247 59.928,10.766C59.024,11.273 58.281,12.016 57.783,12.911C57.268,13.91 57,15.013 57,16.132C57,17.251 57.268,18.354 57.783,19.353C58.282,20.248 59.024,20.99 59.928,21.498C60.866,22.017 61.929,22.282 63.006,22.264C64.297,22.303 65.563,21.913 66.598,21.157" style="fill:rgb(62,104,255);fill-rule:nonzero;"/>
        <path d="M85.158,6.609C84.801,6.252 84.602,6.053 84.343,6.053C84.083,6.053 83.885,6.252 83.528,6.609C83.17,6.967 82.972,7.165 82.972,7.424C82.972,7.684 83.17,7.882 83.528,8.24C83.885,8.597 84.083,8.795 84.343,8.795C84.602,8.795 84.801,8.597 85.158,8.24C85.515,7.882 85.714,7.684 85.714,7.424C85.714,7.165 85.515,6.966 85.158,6.609Z" style="fill:rgb(62,104,255);fill-rule:nonzero;"/>
    </g>
</svg>
