<?xml version="1.0" encoding="UTF-8" standalone="no"?>
<!DOCTYPE svg PUBLIC "-//W3C//DTD SVG 1.1//EN" "http://www.w3.org/Graphics/SVG/1.1/DTD/svg11.dtd">
<svg width="100%" height="100%" viewBox="0 0 400 400" version="1.1" xmlns="http://www.w3.org/2000/svg" xmlns:xlink="http://www.w3.org/1999/xlink" xml:space="preserve" xmlns:serif="http://www.serif.com/" style="fill-rule:evenodd;clip-rule:evenodd;stroke-linejoin:round;stroke-miterlimit:2;">
    <g id="Artboard1" transform="matrix(2.77119,0,0,2.50406,-477.626,400)">
        <rect x="172.354" y="-159.741" width="144.342" height="159.741" style="fill:none;"/>
        <g transform="matrix(0.10951,0,0,0.121193,197.649,-116.923)">
            <g id="layer101" transform="matrix(1,0,0,1,-172,160)">
                <path d="M945.3,259C926.6,254.1 909.9,240.8 901.8,224.5C895.8,212.6 894.5,206.5 894.5,191.5C894.5,178.4 894.7,177 897.6,168.7C901.7,157.4 906,150.2 913.5,142.6C921.2,134.7 929.4,129.3 939.5,125.6C946.4,123.1 949.3,122.6 960.7,122.2C981.2,121.5 994,125.3 1007.4,135.9C1018.7,144.9 1018.6,143.4 1007.9,155C1002.8,160.5 998.2,165 997.7,165C997.2,165 994.5,162.9 991.7,160.4C967,138.2 932,150.3 926,183.1C923.7,195.8 927.1,210 934.8,219.6C938.5,224.2 941.2,226.4 947.4,229.5C955,233.3 955.6,233.5 964.9,233.5C973.6,233.5 975.1,233.2 981,230.4C984.6,228.7 990.2,225 993.5,222.3L999.5,217.2L1008.9,226.6C1018.3,236 1018.3,236 1016.4,238.2C1012.9,242.1 999.8,252.1 994.8,254.6C982.1,261 960.4,263 945.3,259Z" style="fill:rgb(17,85,130);fill-rule:nonzero;"/>
                <path d="M44.2,207.8L44.5,157.5L164.5,157.5L164.8,171.7L165.1,186L120.8,186.2L76.5,186.5L76.2,222.3L76,258L44,258L44.2,207.8Z" style="fill:rgb(17,85,130);fill-rule:nonzero;"/>
                <path d="M211.2,169.8L211.5,81.5L227.3,81.2L243,80.9L243,258L211,258L211.2,169.8Z" style="fill:rgb(17,85,130);fill-rule:nonzero;"/>
                <path d="M290,258L290,81L318.8,81L325.7,89.8C329.5,94.6 340.5,108.6 350,121C359.6,133.4 369.9,146.7 372.9,150.5C376,154.4 383.5,164 389.5,171.9C395.6,179.8 403.3,189.8 406.8,194.2L413,202.2L413,81L444,81L444,258L417.4,258L415.3,255.3C412.1,251 382.2,212.5 365.4,190.9C348.3,168.8 337.8,155.3 328.2,142.9L321.5,134.2L321.2,196.1L321,258L290,258Z" style="fill:rgb(17,85,130);fill-rule:nonzero;"/>
                <path d="M750.1,224.4L727.1,190.8L733.3,186.3C736.7,183.8 741.9,179.5 744.7,176.7C747.6,173.9 750.1,171.8 750.3,172.1C750.5,172.3 753.8,177 757.7,182.5C761.5,188 770.2,200.4 777,210C783.8,219.6 790.8,229.5 792.5,232C794.3,234.5 798.9,241.1 802.8,246.6C806.8,252.2 810,257.1 810,257.4C810,257.7 801.7,258 791.6,258L773.2,258L750.1,224.4Z" style="fill:rgb(17,85,130);fill-rule:nonzero;"/>
                <path d="M836,258L836,223L871,223L871,258L836,258Z" style="fill:rgb(17,85,130);fill-rule:nonzero;"/>
                <path d="M1039,258L1039,236.8L1050.6,223.7C1075.8,195.2 1090,179.1 1102.3,165.1L1115.2,150.5L1078.5,150.2L1041.9,150L1042.2,137.2L1042.5,124.5L1155.5,124.5L1155.8,135L1156,145.5L1132.3,172.4C1119.2,187.2 1102.1,206.6 1094.4,215.4L1080.2,231.5L1117.9,232L1155.5,232.5L1155.8,245.3L1156.1,258L1039,258Z" style="fill:rgb(17,85,130);fill-rule:nonzero;"/>
                <path d="M489,167L489,81L621,81L621,109L521,109L521,155L609,155L609,183L521,183L521,230L540.3,230.2L559.5,230.5L541,236.7C516.7,244.8 491.1,253 489.9,253C489.4,253 489,219.4 489,167Z" style="fill:rgb(17,85,130);fill-rule:nonzero;"/>
                <path d="M699.1,154.8C697.2,151.7 654.4,91.4 650.9,86.8C649.3,84.8 648,82.6 648,82.1C648,81.4 654.1,81 666.3,81L684.5,81L697,99.2C703.9,109.2 712.8,122.1 716.8,127.9C725.1,139.7 725.2,137.8 715.2,147.3C709.2,153.1 703.7,157 701.8,157C701.1,157 699.9,156 699.1,154.8Z" style="fill:rgb(17,85,130);fill-rule:nonzero;"/>
                <path d="M44,110L44,81L176,81L176,110L44,110Z" style="fill:rgb(17,85,130);fill-rule:nonzero;"/>
            </g>
            <g id="layer102" transform="matrix(1,0,0,1,-172,160)">
                <path d="M499,256C502,255 515.3,250.7 528.5,246.5C614.2,219 668.2,193.9 707.5,163.1C736.4,140.5 758,111.9 766.9,84.1C771.7,69.5 771.7,70.6 765.8,68.1C761.3,66.2 760.8,65.8 762.1,64.6C765.8,60.9 803.4,30.1 803.7,30.4C804.4,31.1 812.1,85.3 811.5,85.8C811,86.3 808.8,85.7 802.4,83.3C801.9,83.1 800.3,85.5 799,88.7C777.2,142.2 735,185 676.8,212.4C636.8,231.3 586.1,244.9 520.2,254.5C506.9,256.4 495.4,258 494.7,257.9C494,257.9 496,257 499,256Z" style="fill:rgb(48,180,76);fill-rule:nonzero;"/>
            </g>
        </g>
    </g>
</svg>
