<?xml version="1.0" encoding="UTF-8" standalone="no"?>
<!DOCTYPE svg PUBLIC "-//W3C//DTD SVG 1.1//EN" "http://www.w3.org/Graphics/SVG/1.1/DTD/svg11.dtd">
<svg width="100%" height="100%" viewBox="0 0 200 200" version="1.1" xmlns="http://www.w3.org/2000/svg" xmlns:xlink="http://www.w3.org/1999/xlink" xml:space="preserve" xmlns:serif="http://www.serif.com/" style="fill-rule:evenodd;clip-rule:evenodd;stroke-linejoin:round;stroke-miterlimit:2;">
    <rect x="0" y="0" width="200" height="200" style="fill:url(#_Linear1);"/>
    <g id="Artboard1" transform="matrix(4.35465,0,0,4.46111,136.372,-24.4969)">
        <rect x="-31.316" y="5.491" width="45.928" height="44.832" style="fill:none;"/>
        <g transform="matrix(0.138763,0,0,0.135452,-22.806,14.0911)">
            <g id="Layer_1">
                <g>
                    <path d="M6.52,160.92C10.03,164.26 13.78,165.97 17.77,165.97C20.13,165.97 21.36,165.4 21.36,164.18C21.36,163.28 20.71,162.88 19,162.14L14.43,160.27C6.36,157.01 2.61,153.58 2.61,147.14C2.61,139.07 8.89,134.34 18.43,134.34C24.87,134.34 29.93,136.3 33.76,140.29L27.16,148.85C24.39,146.49 21.54,145.34 18.52,145.34C16.64,145.34 15.67,145.83 15.67,146.89C15.67,147.79 16.49,148.36 18.44,149.09L22.52,150.72C30.67,153.98 34.42,157.08 34.42,163.52C34.42,167.68 32.87,171.02 29.69,173.47C26.51,175.83 22.52,177.06 17.54,177.06C10.28,177.06 3.84,174.21 0.01,169.23L6.53,160.91L6.52,160.92Z" style="fill:white;fill-rule:nonzero;"/>
                    <path d="M62.21,177.06C57.89,177.06 54.46,175.84 51.77,173.31L51.77,190.76L37.75,190.76L37.75,135.32L50.55,135.32L50.55,139.56C53.08,136.05 56.99,134.34 62.21,134.34C73.62,134.34 81.78,143.23 81.78,155.62C81.78,168.01 73.46,177.06 62.21,177.06ZM59.44,147.06C55.12,147.06 51.53,150.08 51.53,155.62C51.53,161.16 55.12,164.34 59.44,164.34C63.76,164.34 67.43,161.16 67.43,155.7C67.43,150.24 63.92,147.06 59.44,147.06Z" style="fill:white;fill-rule:nonzero;"/>
                    <path d="M122.21,176.08L109.41,176.08L109.41,172.74C106.39,175.59 102.48,177.06 97.67,177.06C88.78,177.06 83.65,171.27 83.65,164.42C83.65,156.84 89.76,152.27 99.63,152.27L108.19,152.27L108.19,151.62C108.19,148.44 106.23,146.4 101.99,146.4C98.32,146.4 95.71,147.87 91.8,151.37L85.28,142.48C90.74,136.94 96.29,134.33 103.71,134.33C115.12,134.33 122.22,140.69 122.22,152.43L122.22,176.07L122.21,176.08ZM108.2,160.83L101.59,160.83C99.23,160.83 97.84,161.97 97.84,163.93C97.84,165.89 99.39,167.11 102,167.11C105.59,167.11 108.2,164.83 108.2,161.16L108.2,160.83Z" style="fill:white;fill-rule:nonzero;"/>
                    <path d="M148.14,134.34C156.54,134.34 163.06,138.5 166.4,145.26L156.7,152.68C154.5,149.17 151.97,147.22 148.3,147.22C143.41,147.22 140.23,150.73 140.23,155.7C140.23,160.67 143.41,164.18 148.3,164.18C151.97,164.18 154.5,162.14 156.7,158.8L166.4,166.14C163.06,172.91 156.54,177.06 148.14,177.06C135.99,177.3 125.64,167.52 125.88,155.7C125.64,143.88 135.99,134.1 148.14,134.34Z" style="fill:white;fill-rule:nonzero;"/>
                    <path d="M181.32,160.59C182.87,163.69 185.89,165.24 190.45,165.24C194.12,165.24 197.62,164.18 201.13,162.06L206.18,171.6C201.37,175.27 195.91,177.06 189.96,177.06C176.67,177.06 167.05,167.77 167.05,155.7C167.05,143.63 176.67,134.34 188.82,134.34C200.97,134.34 208.3,143.14 208.3,153.66C208.3,156.11 207.97,158.39 207.4,160.59L181.31,160.59L181.32,160.59ZM195.02,151.46C194.94,147.79 191.92,145.35 188.25,145.35C184.58,145.35 181.89,147.55 180.83,151.46L195.02,151.46Z" style="fill:white;fill-rule:nonzero;"/>
                    <path d="M187.79,31.62C172.63,32.24 159.2,39.57 150.4,50.73L162.71,50.73L162.71,112.98L183.91,112.98L183.91,50.73L208.32,50.73L208.32,31.62L187.79,31.62Z" style="fill:white;fill-rule:nonzero;"/>
                    <path d="M168.05,28.46C152.33,28.46 139.59,15.72 139.59,0C139.59,15.72 126.84,28.46 111.13,28.46C126.85,28.46 139.59,41.21 139.59,56.92C139.59,41.2 152.33,28.46 168.05,28.46Z" style="fill:rgb(94,81,244);"/>
                    <path d="M104.27,50.73L128.78,50.73C119.97,39.57 106.55,32.24 91.39,31.62L83.07,31.62L83.07,112.98L104.27,112.98L104.27,85.37L131.88,85.37L131.88,66.26L104.27,66.26L104.27,50.73Z" style="fill:white;fill-rule:nonzero;"/>
                    <path d="M50.02,31.6L50.02,71.56C40.64,58.25 31.26,44.93 21.88,31.62L0,31.62L0,112.98L20.83,112.98L20.83,70.96C30.56,84.97 40.29,98.97 50.01,112.98L70.84,112.98L70.84,31.6L50.01,31.6L50.02,31.6Z" style="fill:white;fill-rule:nonzero;"/>
                </g>
            </g>
        </g>
    </g>
    <defs>
        <linearGradient id="_Linear1" x1="0" y1="0" x2="1" y2="0" gradientUnits="userSpaceOnUse" gradientTransform="matrix(200,200,-200,200,0,0)"><stop offset="0" style="stop-color:rgb(31,24,68);stop-opacity:1"/><stop offset="1" style="stop-color:rgb(19,16,37);stop-opacity:1"/></linearGradient>
    </defs>
</svg>
