<?xml version="1.0" encoding="UTF-8" standalone="no"?>
<!-- Generated by Pixelmator Pro 2.3.8 -->

<svg
   viewBox="0 0 405 70"
   version="1.1"
   id="svg167"
   sodipodi:docname="logo-full-blue-transparent.svg"
   inkscape:version="1.1.2 (b8e25be8, 2022-02-05)"
   xmlns:inkscape="http://www.inkscape.org/namespaces/inkscape"
   xmlns:sodipodi="http://sodipodi.sourceforge.net/DTD/sodipodi-0.dtd"
   xmlns="http://www.w3.org/2000/svg"
   xmlns:svg="http://www.w3.org/2000/svg">
  <defs
     id="defs171" />
  <sodipodi:namedview
     id="namedview169"
     pagecolor="#ffffff"
     bordercolor="#666666"
     borderopacity="1.0"
     inkscape:pageshadow="2"
     inkscape:pageopacity="1"
     inkscape:pagecheckerboard="0"
     showgrid="false"
     inkscape:zoom="2.782716"
     inkscape:cx="197.28927"
     inkscape:cy="34.858031"
     inkscape:window-width="1992"
     inkscape:window-height="986"
     inkscape:window-x="1558"
     inkscape:window-y="51"
     inkscape:window-maximized="0"
     inkscape:current-layer="svg167"
     showborder="false" />
  <g
     id="g10">
    <g
       id="g14"
       style="fill:#462a4e;fill-opacity:1">
      <path
         id="path16"
         fill="#ffffff"
         stroke="none"
         d="m 119.04146,0.333313 0.33067,69.237335 -17.004,0.09601 -0.32933,-69.237335 z"
         style="fill:#462a4e;fill-opacity:1" />
    </g>
    <g
       id="g18"
       style="fill:#462a4e;fill-opacity:1">
      <path
         id="path20"
         fill="#ffffff"
         stroke="none"
         d="m 144.60586,27 0.0987,16.997314 -67.90001,0.335999 -0.09999,-16.997314 z"
         style="fill:#462a4e;fill-opacity:1" />
    </g>
    <g
       id="g22"
       style="fill:#462a4e;fill-opacity:1">
      <path
         id="path24"
         fill="#ffffff"
         stroke="none"
         d="M 211.94424,13.003845 155.70026,69.753189 143.62425,57.821182 199.86826,1.071869 Z"
         style="fill:#462a4e;fill-opacity:1" />
    </g>
    <g
       id="g26"
       style="fill:#462a4e;fill-opacity:1">
      <path
         id="path28"
         fill="#ffffff"
         stroke="none"
         d="M 212.7872,56.825592 200.86319,68.901581 144.11519,12.665588 156.03786,0.5896 Z"
         style="fill:#462a4e;fill-opacity:1" />
    </g>
    <g
       id="g30"
       style="fill:#462a4e;fill-opacity:1">
      <g
         id="g32"
         style="fill:#462a4e;fill-opacity:1">
        <g
           id="g38"
           style="fill:#462a4e;fill-opacity:1">
          <path
             id="path40"
             fill="#ffffff"
             stroke="none"
             d="m 248.27371,17.181335 c 9.56934,0 17.388,7.954651 17.388,17.839997 0,9.883972 -7.81866,17.838653 -17.388,17.838653 -9.5693,0 -17.388,-7.954681 -17.388,-17.838653 0,-9.885346 7.8187,-17.839997 17.388,-17.839997 m 0,-16.848022 c -18.94131,0 -34.23599,15.562683 -34.23599,34.688019 0,19.123993 15.29468,34.686661 34.23599,34.686661 18.94135,0 34.23602,-15.562668 34.23602,-34.686661 0,-19.125336 -15.29467,-34.688019 -34.23602,-34.688019"
             style="fill:#462a4e;fill-opacity:1" />
        </g>
      </g>
    </g>
    <g
       id="g42">
      <g
         id="g44">
        <g
           id="g50">
          <g
             id="g52">
            <linearGradient
               id="linearGradient1"
               x1="7.7823062"
               y1="45.101067"
               x2="65.975807"
               y2="24.056562"
               gradientUnits="userSpaceOnUse">
              <stop
                 offset="1e-05"
                 stop-color="#06C87F"
                 stop-opacity="1"
                 id="stop146" />
              <stop
                 offset="1"
                 stop-color="#A85ABF"
                 stop-opacity="1"
                 id="stop148" />
            </linearGradient>
            <path
               id="path60"
               fill="url(#linearGradient1)"
               stroke="none"
               d="m 44.877327,19.682648 c 4.588005,3.272003 7.450676,8.667999 7.450676,14.605346 v 0 c 0,9.849335 -7.806671,17.793335 -17.386673,17.793335 v 0 c -9.579994,0 -17.386665,-7.944 -17.386665,-17.793335 v 0 c 0,-5.889343 2.817329,-11.24533 7.338661,-14.524017 v 0 L 13.645332,7.085327 C 5.618668,13.554657 0.70533,23.47998 0.70533,34.287994 v 0 c 0,19.162659 15.305336,34.735993 34.236,34.735993 v 0 c 18.929337,0 34.236008,-15.573334 34.236008,-34.735993 v 0 C 69.177338,23.433319 64.220001,13.467987 56.129333,7 v 0 z" />
          </g>
        </g>
      </g>
    </g>
    <g
       id="g62"
       style="fill:#462a4e;fill-opacity:1">
      <g
         id="g64"
         style="fill:#462a4e;fill-opacity:1">
        <path
           id="path70"
           fill="#ffffff"
           stroke="none"
           d="m 282.75198,59.746643 h 8.87732 v 8.87735 h -8.87732 z"
           style="fill:#462a4e;fill-opacity:1" />
        <g
           id="g72"
           style="fill:#462a4e;fill-opacity:1">
          <path
             id="path74"
             fill="#ffffff"
             stroke="none"
             d="m 302.98441,68.624115 c 0,-6.435989 2.40399,-12.465332 7.21331,-18.087982 3.92002,-4.661347 9.39466,-9.02536 16.42401,-13.094666 4.73331,-2.736023 8.21198,-5.17868 10.43198,-7.324005 3.18002,-3.254669 4.77069,-6.731994 4.77069,-10.432007 0,-3.477325 -1.51733,-6.361328 -4.54935,-8.656006 -2.88534,-2.070648 -6.28933,-3.106658 -10.20931,-3.106658 -4.06934,0 -7.5467,1.369323 -10.43201,4.105346 -2.95868,2.813324 -4.43866,6.214661 -4.43866,10.20932 v 4.217316 h -7.54669 v -4.217316 c 0,-6.063995 2.22,-11.243988 6.65869,-15.53601 4.36532,-4.216004 9.61599,-6.325318 15.75867,-6.325318 5.99197,0 11.16931,1.776001 15.53598,5.32666 4.51199,3.773346 6.76934,8.434662 6.76934,13.982666 0,4.88266 -1.776,9.470673 -5.32666,13.761322 -2.96002,3.55069 -7.06668,6.842682 -12.31735,9.874665 l -2.33066,1.332 c -9.91601,5.624024 -15.35333,11.098679 -16.31466,16.425339 h 36.28933 v 7.545334 z"
             style="fill:#462a4e;fill-opacity:1" />
        </g>
        <g
           id="g76"
           style="fill:#462a4e;fill-opacity:1">
          <path
             id="path78"
             fill="#ffffff"
             stroke="none"
             d="m 358.39453,68.624115 c 0,-6.435989 2.40399,-12.465332 7.21332,-18.087982 3.92001,-4.661347 9.39468,-9.02536 16.42401,-13.094666 4.73334,-2.736023 8.21201,-5.17868 10.43201,-7.324005 3.17999,-3.254669 4.77066,-6.731994 4.77066,-10.432007 0,-3.477325 -1.51868,-6.361328 -4.54935,-8.656006 -2.88531,-2.070648 -6.28934,-3.106658 -10.20932,-3.106658 -4.06934,0 -7.54666,1.369323 -10.43201,4.105346 -2.95868,2.813324 -4.43866,6.214661 -4.43866,10.20932 v 4.217316 h -7.54666 v -4.217316 c 0,-6.063995 2.22,-11.243988 6.65866,-15.53601 4.36533,-4.216004 9.616,-6.325318 15.75867,-6.325318 5.99201,0 11.16934,1.776001 15.53467,5.32666 4.51333,3.773346 6.77066,8.434662 6.77066,13.982666 0,4.88266 -1.776,9.470673 -5.328,13.761322 -2.95865,3.55069 -7.06534,6.842682 -12.31601,9.874665 l -2.33066,1.332 c -9.91599,5.624024 -15.35333,11.098679 -16.31467,16.425339 h 36.28934 v 7.545334 z"
             style="fill:#462a4e;fill-opacity:1" />
        </g>
      </g>
    </g>
  </g>
</svg>
