<?xml version="1.0" encoding="UTF-8" standalone="no"?>
<svg
   role="img"
   viewBox="199.57 195.69 249.99999 249.99999"
   version="1.1"
   id="svg976"
   sodipodi:docname="logo-square-blue-padded.svg"
   inkscape:version="1.1.2 (b8e25be8, 2022-02-05)"
   xmlns:inkscape="http://www.inkscape.org/namespaces/inkscape"
   xmlns:sodipodi="http://sodipodi.sourceforge.net/DTD/sodipodi-0.dtd"
   xmlns="http://www.w3.org/2000/svg"
   xmlns:svg="http://www.w3.org/2000/svg">
  <sodipodi:namedview
     id="namedview978"
     pagecolor="#ffffff"
     bordercolor="#666666"
     borderopacity="1.0"
     inkscape:pageshadow="2"
     inkscape:pageopacity="0.0"
     inkscape:pagecheckerboard="false"
     showgrid="false"
     inkscape:zoom="1.1662912"
     inkscape:cx="21.864179"
     inkscape:cy="106.31993"
     inkscape:window-width="2047"
     inkscape:window-height="1088"
     inkscape:window-x="1622"
     inkscape:window-y="217"
     inkscape:window-maximized="0"
     inkscape:current-layer="svg976"
     width="250px" />
  <defs
     id="defs958">
    <linearGradient
       id="b"
       x1="0"
       x2="1"
       y1="0"
       y2="0"
       gradientTransform="matrix(43.64513,15.78338,-17.42446,39.53452,157.308,229.424)"
       gradientUnits="userSpaceOnUse"
       spreadMethod="pad">
      <stop
         offset="0"
         stop-color="#06C87F"
         stop-opacity="1"
         id="stop950" />
      <stop
         offset="1"
         stop-color="#A85ABF"
         stop-opacity="1"
         id="stop952" />
    </linearGradient>
    <clipPath
       id="a"
       clipPathUnits="userSpaceOnUse">
      <path
         d="M 0,413 H 413 V 0 H 0 Z"
         id="path955" />
    </clipPath>
  </defs>
  <rect
     style="display:inline;fill:#ffffff;fill-opacity:1;stroke-width:1.22257"
     id="rect942"
     width="250"
     height="250"
     x="199.57001"
     y="-445.69"
     transform="scale(1,-1)" />
  <g
     transform="matrix(1.3632522,0,0,-1.3632522,43.519256,605.58858)"
     id="g974">
    <path
       fill="#462a4e"
       fill-opacity="1"
       fill-rule="nonzero"
       stroke="none"
       d="M 240.752,264 241,212.072 228.247,212 228,263.928 Z"
       id="path960"
       style="display:inline" />
    <path
       fill="#462a4e"
       fill-opacity="1"
       fill-rule="nonzero"
       stroke="none"
       d="m 259.925,244 0.074,-12.748 -50.925,-0.252 -0.075,12.748 z"
       id="path962" />
    <path
       fill="#462a4e"
       fill-opacity="1"
       fill-rule="nonzero"
       stroke="none"
       d="m 203.12,196.806 -42.183,-42.562 -9.057,8.949 42.183,42.562 z"
       id="path964" />
    <path
       fill="#462a4e"
       fill-opacity="1"
       fill-rule="nonzero"
       stroke="none"
       d="m 203.752,163.94 -8.943,-9.057 -42.561,42.177 8.942,9.057 z"
       id="path966" />
    <g
       clip-path="url(#a)"
       id="g970">
      <path
         fill="#462a4e"
         fill-opacity="1"
         fill-rule="nonzero"
         stroke="none"
         d="m 234.677,193.364 c -7.177,0 -13.041,-5.966 -13.041,-13.38 0,-7.413 5.864,-13.379 13.041,-13.379 7.177,0 13.041,5.966 13.041,13.379 0,7.414 -5.864,13.38 -13.041,13.38 m 0,12.636 c 14.206,0 25.677,-11.672 25.677,-26.016 0,-14.343 -11.471,-26.015 -25.677,-26.015 -14.206,0 -25.677,11.672 -25.677,26.015 0,14.344 11.471,26.016 25.677,26.016"
         id="path968" />
    </g>
    <path
       fill="url(#b)"
       stroke="none"
       d="m 185.129,248.487 c 3.441,-2.453 5.588,-6.499 5.588,-10.954 0,-7.386 -5.855,-13.343 -13.04,-13.343 -7.185,0 -13.04,5.957 -13.04,13.343 0,4.418 2.113,8.436 5.504,10.895 l -8.435,9.507 C 155.686,253.084 152,245.64 152,237.533 c 0,-14.37 11.48,-26.05 25.677,-26.05 14.198,0 25.677,11.68 25.677,26.05 0,8.143 -3.718,15.616 -9.786,20.467 z"
       id="path972"
       style="fill:url(#b)" />
  </g>
</svg>
