<?xml version="1.0" encoding="UTF-8" standalone="no"?>
<!-- Generated by Pixelmator Pro 2.3.8 -->

<svg
   viewBox="0 0 405 70"
   version="1.1"
   id="svg167"
   sodipodi:docname="logo-full-blue.svg"
   inkscape:version="1.1.2 (b8e25be8, 2022-02-05)"
   xmlns:inkscape="http://www.inkscape.org/namespaces/inkscape"
   xmlns:sodipodi="http://sodipodi.sourceforge.net/DTD/sodipodi-0.dtd"
   xmlns="http://www.w3.org/2000/svg"
   xmlns:svg="http://www.w3.org/2000/svg">
  <defs
     id="defs171" />
  <sodipodi:namedview
     id="namedview169"
     pagecolor="#ffffff"
     bordercolor="#666666"
     borderopacity="1.0"
     inkscape:pageshadow="2"
     inkscape:pageopacity="1"
     inkscape:pagecheckerboard="0"
     showgrid="false"
     inkscape:zoom="2.782716"
     inkscape:cx="197.28927"
     inkscape:cy="34.858031"
     inkscape:window-width="1992"
     inkscape:window-height="986"
     inkscape:window-x="1498"
     inkscape:window-y="57"
     inkscape:window-maximized="0"
     inkscape:current-layer="g64"
     showborder="false" />
  <rect
     style="fill:#ffffff;fill-rule:evenodd;stroke-width:5.06803;fill-opacity:1"
     id="rect13204"
     width="405"
     height="70"
     x="0"
     y="0" />
  <g
     id="g10">
    <g
       id="g14"
       style="fill:#462a4e;fill-opacity:1">
      <path
         id="path16"
         fill="#ffffff"
         stroke="none"
         d="m 119.04146,0.333313 0.33067,69.237335 -17.004,0.09601 -0.32933,-69.237335 z"
         style="fill:#462a4e;fill-opacity:1" />
    </g>
    <g
       id="g18"
       style="fill:#462a4e;fill-opacity:1">
      <path
         id="path20"
         fill="#ffffff"
         stroke="none"
         d="m 144.60586,27 0.0987,16.997314 -67.90001,0.335999 -0.09999,-16.997314 z"
         style="fill:#462a4e;fill-opacity:1" />
    </g>
    <g
       id="g22"
       style="fill:#462a4e;fill-opacity:1">
      <path
         id="path24"
         fill="#ffffff"
         stroke="none"
         d="M 211.94424,13.003845 155.70026,69.753189 143.62425,57.821182 199.86826,1.071869 Z"
         style="fill:#462a4e;fill-opacity:1" />
    </g>
    <g
       id="g26"
       style="fill:#462a4e;fill-opacity:1">
      <path
         id="path28"
         fill="#ffffff"
         stroke="none"
         d="M 212.7872,56.825592 200.86319,68.901581 144.11519,12.665588 156.03786,0.5896 Z"
         style="fill:#462a4e;fill-opacity:1" />
    </g>
    <g
       id="g30"
       style="fill:#462a4e;fill-opacity:1">
      <g
         id="g32"
         style="fill:#462a4e;fill-opacity:1">
        <g
           id="g38"
           style="fill:#462a4e;fill-opacity:1">
          <path
             id="path40"
             fill="#ffffff"
             stroke="none"
             d="m 248.27371,17.181335 c 9.56934,0 17.388,7.954651 17.388,17.839997 0,9.883972 -7.81866,17.838653 -17.388,17.838653 -9.5693,0 -17.388,-7.954681 -17.388,-17.838653 0,-9.885346 7.8187,-17.839997 17.388,-17.839997 m 0,-16.848022 c -18.94131,0 -34.23599,15.562683 -34.23599,34.688019 0,19.123993 15.29468,34.686661 34.23599,34.686661 18.94135,0 34.23602,-15.562668 34.23602,-34.686661 0,-19.125336 -15.29467,-34.688019 -34.23602,-34.688019"
             style="fill:#462a4e;fill-opacity:1" />
        </g>
      </g>
    </g>
    <g
       id="g42">
      <g
         id="g44">
        <g
           id="g50">
          <g
             id="g52">
            <linearGradient
               id="linearGradient1"
               x1="7.7823062"
               y1="45.101067"
               x2="65.975807"
               y2="24.056562"
               gradientUnits="userSpaceOnUse">
              <stop
                 offset="1e-05"
                 stop-color="#06C87F"
                 stop-opacity="1"
                 id="stop146" />
              <stop
                 offset="1"
                 stop-color="#A85ABF"
                 stop-opacity="1"
                 id="stop148" />
            </linearGradient>
            <path
               id="path60"
               fill="url(#linearGradient1)"
               stroke="none"
               d="m 44.877327,19.682648 c 4.588005,3.272003 7.450676,8.667999 7.450676,14.605346 v 0 c 0,9.849335 -7.806671,17.793335 -17.386673,17.793335 v 0 c -9.579994,0 -17.386665,-7.944 -17.386665,-17.793335 v 0 c 0,-5.889343 2.817329,-11.24533 7.338661,-14.524017 v 0 L 13.645332,7.085327 C 5.618668,13.554657 0.70533,23.47998 0.70533,34.287994 v 0 c 0,19.162659 15.305336,34.735993 34.236,34.735993 v 0 c 18.929337,0 34.236008,-15.573334 34.236008,-34.735993 v 0 C 69.177338,23.433319 64.220001,13.467987 56.129333,7 v 0 z" />
          </g>
        </g>
      </g>
    </g>
    <g
       id="g62"
       style="fill:#462a4e;fill-opacity:1">
      <g
         id="g64"
         style="fill:#462a4e;fill-opacity:1">
        <path
           id="path70"
           fill="#ffffff"
           stroke="none"
           d="m 282.75198,59.746643 h 8.87732 v 8.87735 h -8.87732 z"
           style="fill:#462a4e;fill-opacity:1" />
        <g
           transform="matrix(8.383,0,0,8.383,-2415.1528,-296.00103)"
           id="g5333"
           style="clip-rule:evenodd;fill-rule:evenodd;stroke-linejoin:round;stroke-miterlimit:2">
          <g
             transform="matrix(11.3461,0,0,11.3461,323.671,43.5138)"
             id="g5327">
            <path
               d="M 0.059,-0.127 0.334,-0.393 C 0.342,-0.401 0.35,-0.409 0.359,-0.419 0.368,-0.428 0.376,-0.437 0.383,-0.447 0.39,-0.457 0.395,-0.468 0.4,-0.479 0.405,-0.49 0.407,-0.501 0.407,-0.513 0.407,-0.528 0.404,-0.541 0.399,-0.552 0.393,-0.563 0.385,-0.573 0.376,-0.581 0.367,-0.589 0.356,-0.595 0.344,-0.6 0.331,-0.604 0.318,-0.606 0.304,-0.606 c -0.03,0 -0.055,0.009 -0.074,0.026 -0.019,0.017 -0.031,0.041 -0.035,0.07 L 0.069,-0.52 c 0.003,-0.033 0.011,-0.062 0.024,-0.087 0.013,-0.025 0.029,-0.045 0.05,-0.062 0.021,-0.017 0.045,-0.029 0.072,-0.038 0.027,-0.009 0.057,-0.013 0.089,-0.013 0.032,0 0.062,0.004 0.09,0.012 0.027,0.009 0.051,0.021 0.072,0.037 0.021,0.017 0.037,0.038 0.049,0.063 0.012,0.025 0.018,0.055 0.018,0.089 0,0.045 -0.01,0.083 -0.03,0.115 -0.021,0.033 -0.047,0.064 -0.079,0.093 L 0.205,-0.108 H 0.533 V 0 H 0.059 Z"
               style="fill:#462a4e;fill-rule:nonzero"
               id="path5325" />
          </g>
          <g
             transform="matrix(11.3461,0,0,11.3461,330.388,43.5138)"
             id="g5331">
            <path
               d="m 0.222,-0.423 h 0.031 c 0.017,0 0.034,-0.001 0.051,-0.003 0.016,-0.002 0.031,-0.006 0.044,-0.013 0.013,-0.007 0.023,-0.016 0.031,-0.029 0.008,-0.013 0.012,-0.03 0.012,-0.051 0,-0.027 -0.009,-0.05 -0.028,-0.067 C 0.344,-0.603 0.32,-0.612 0.29,-0.612 c -0.024,0 -0.045,0.007 -0.064,0.02 -0.019,0.014 -0.033,0.033 -0.042,0.058 L 0.057,-0.568 c 0.008,-0.026 0.019,-0.049 0.034,-0.068 0.015,-0.019 0.032,-0.035 0.052,-0.048 0.02,-0.012 0.042,-0.021 0.066,-0.027 0.024,-0.006 0.049,-0.009 0.075,-0.009 0.031,0 0.06,0.004 0.087,0.012 0.027,0.008 0.051,0.02 0.072,0.035 0.021,0.016 0.037,0.036 0.05,0.059 0.012,0.024 0.018,0.052 0.018,0.083 0,0.038 -0.011,0.072 -0.032,0.101 -0.021,0.03 -0.051,0.05 -0.089,0.059 v 0.002 c 0.045,0.007 0.08,0.026 0.103,0.058 0.023,0.032 0.035,0.07 0.035,0.114 0,0.034 -0.006,0.064 -0.019,0.09 C 0.496,-0.081 0.478,-0.059 0.456,-0.042 0.434,-0.024 0.409,-0.011 0.38,-0.002 0.351,0.008 0.32,0.012 0.289,0.012 0.26,0.012 0.232,0.009 0.206,0.003 0.18,-0.004 0.157,-0.014 0.136,-0.027 0.115,-0.04 0.096,-0.057 0.081,-0.079 0.066,-0.099 0.054,-0.125 0.046,-0.154 l 0.128,-0.034 c 0.007,0.029 0.02,0.052 0.039,0.068 0.019,0.016 0.044,0.024 0.076,0.024 0.016,0 0.031,-0.003 0.046,-0.008 C 0.349,-0.109 0.362,-0.117 0.373,-0.127 0.384,-0.136 0.392,-0.148 0.399,-0.162 0.405,-0.175 0.408,-0.19 0.408,-0.207 0.408,-0.23 0.403,-0.248 0.394,-0.263 0.384,-0.277 0.372,-0.288 0.357,-0.296 0.341,-0.303 0.325,-0.308 0.306,-0.311 0.287,-0.314 0.269,-0.315 0.251,-0.315 H 0.222 Z"
               style="fill:#462a4e;fill-rule:nonzero"
               id="path5329" />
          </g>
        </g>
      </g>
    </g>
  </g>
</svg>
