<?xml version="1.0" encoding="UTF-8" standalone="no"?>
<!-- Generated by Pixelmator Pro 2.3.8 -->

<svg
   viewBox="0 0 405 70"
   version="1.1"
   id="svg167"
   sodipodi:docname="logo-full-white.svg"
   inkscape:version="1.1.2 (b8e25be8, 2022-02-05)"
   xmlns:inkscape="http://www.inkscape.org/namespaces/inkscape"
   xmlns:sodipodi="http://sodipodi.sourceforge.net/DTD/sodipodi-0.dtd"
   xmlns="http://www.w3.org/2000/svg"
   xmlns:svg="http://www.w3.org/2000/svg">
  <defs
     id="defs171" />
  <sodipodi:namedview
     id="namedview169"
     pagecolor="#ffffff"
     bordercolor="#666666"
     borderopacity="1.0"
     inkscape:pageshadow="2"
     inkscape:pageopacity="1"
     inkscape:pagecheckerboard="0"
     showgrid="false"
     inkscape:zoom="2.782716"
     inkscape:cx="93.793258"
     inkscape:cy="34.858031"
     inkscape:window-width="1992"
     inkscape:window-height="986"
     inkscape:window-x="1558"
     inkscape:window-y="79"
     inkscape:window-maximized="0"
     inkscape:current-layer="svg167"
     showborder="false" />
  <rect
     style="fill:#32375c;fill-rule:evenodd;stroke-width:5.06803;fill-opacity:1"
     id="rect13204"
     width="405"
     height="70"
     x="0"
     y="0" />
  <g
     id="g10">
    <g
       id="g14">
      <path
         id="path16"
         fill="#ffffff"
         stroke="none"
         d="M 119.041458 0.333313 L 119.372131 69.570648 L 102.368134 69.666656 L 102.038803 0.429321 Z" />
    </g>
    <g
       id="g18">
      <path
         id="path20"
         fill="#ffffff"
         stroke="none"
         d="M 144.605865 27 L 144.704529 43.997314 L 76.80452 44.333313 L 76.704529 27.335999 Z" />
    </g>
    <g
       id="g22">
      <path
         id="path24"
         fill="#ffffff"
         stroke="none"
         d="M 211.944244 13.003845 L 155.700256 69.753189 L 143.624252 57.821182 L 199.868256 1.071869 Z" />
    </g>
    <g
       id="g26">
      <path
         id="path28"
         fill="#ffffff"
         stroke="none"
         d="M 212.787201 56.825592 L 200.86319 68.901581 L 144.115189 12.665588 L 156.037857 0.5896 Z" />
    </g>
    <g
       id="g30">
      <g
         id="g32">
        <g
           id="g38">
          <path
             id="path40"
             fill="#ffffff"
             stroke="none"
             d="M 248.273712 17.181335 C 257.843048 17.181335 265.661713 25.135986 265.661713 35.021332 C 265.661713 44.905304 257.843048 52.859985 248.273712 52.859985 C 238.704407 52.859985 230.885712 44.905304 230.885712 35.021332 C 230.885712 25.135986 238.704407 17.181335 248.273712 17.181335 M 248.273712 0.333313 C 229.332397 0.333313 214.03772 15.895996 214.03772 35.021332 C 214.03772 54.145325 229.332397 69.707993 248.273712 69.707993 C 267.215057 69.707993 282.509735 54.145325 282.509735 35.021332 C 282.509735 15.895996 267.215057 0.333313 248.273712 0.333313" />
        </g>
      </g>
    </g>
    <g
       id="g42">
      <g
         id="g44">
        <g
           id="g50">
          <g
             id="g52">
            <linearGradient
               id="linearGradient1"
               x1="7.782306"
               y1="45.101067"
               x2="65.975811"
               y2="24.056562"
               gradientUnits="userSpaceOnUse">
              <stop
                 offset="1e-05"
                 stop-color="#099ef6"
                 stop-opacity="1"
                 id="stop146" />
              <stop
                 offset="1"
                 stop-color="#f66452"
                 stop-opacity="1"
                 id="stop148" />
            </linearGradient>
            <path
               id="path60"
               fill="url(#linearGradient1)"
               stroke="none"
               d="M 44.877327 19.682648 C 49.465332 22.954651 52.328003 28.350647 52.328003 34.287994 L 52.328003 34.287994 C 52.328003 44.137329 44.521332 52.081329 34.94133 52.081329 L 34.94133 52.081329 C 25.361336 52.081329 17.554665 44.137329 17.554665 34.287994 L 17.554665 34.287994 C 17.554665 28.398651 20.371994 23.042664 24.893326 19.763977 L 24.893326 19.763977 L 13.645332 7.085327 C 5.618668 13.554657 0.70533 23.47998 0.70533 34.287994 L 0.70533 34.287994 C 0.70533 53.450653 16.010666 69.023987 34.94133 69.023987 L 34.94133 69.023987 C 53.870667 69.023987 69.177338 53.450653 69.177338 34.287994 L 69.177338 34.287994 C 69.177338 23.433319 64.220001 13.467987 56.129333 7 L 56.129333 7 Z" />
          </g>
        </g>
      </g>
    </g>
    <g
       id="g62">
      <g
         id="g64">
        <path
           id="path70"
           fill="#ffffff"
           stroke="none"
           d="M 282.751984 59.746643 L 291.629303 59.746643 L 291.629303 68.623993 L 282.751984 68.623993 Z" />
        <g
           id="g72">
          <path
             id="path74"
             fill="#ffffff"
             stroke="none"
             d="M 302.984406 68.624115 C 302.984406 62.188126 305.388397 56.158783 310.197723 50.536133 C 314.117737 45.874786 319.592377 41.510773 326.621735 37.441467 C 331.355042 34.705444 334.83371 32.262787 337.053711 30.117462 C 340.233734 26.862793 341.824402 23.385468 341.824402 19.685455 C 341.824402 16.20813 340.307068 13.324127 337.275055 11.029449 C 334.389709 8.958801 330.985718 7.922791 327.065735 7.922791 C 322.996399 7.922791 319.519043 9.292114 316.633728 12.028137 C 313.675049 14.841461 312.195068 18.242798 312.195068 22.237457 L 312.195068 26.454773 L 304.648376 26.454773 L 304.648376 22.237457 C 304.648376 16.173462 306.868378 10.993469 311.307068 6.701447 C 315.672394 2.485443 320.923065 0.376129 327.065735 0.376129 C 333.057709 0.376129 338.235046 2.15213 342.601715 5.702789 C 347.113708 9.476135 349.371063 14.137451 349.371063 19.685455 C 349.371063 24.568115 347.595062 29.156128 344.044403 33.446777 C 341.084381 36.997467 336.977722 40.289459 331.727051 43.321442 L 329.396393 44.653442 C 319.480377 50.277466 314.04306 55.752121 313.081726 61.078781 L 349.371063 61.078781 L 349.371063 68.624115 Z" />
        </g>
        <g
           id="g76">
          <path
             id="path78"
             fill="#ffffff"
             stroke="none"
             d="M 358.394531 68.624115 C 358.394531 62.188126 360.798523 56.158783 365.607849 50.536133 C 369.527863 45.874786 375.002533 41.510773 382.03186 37.441467 C 386.765198 34.705444 390.243866 32.262787 392.463867 30.117462 C 395.64386 26.862793 397.234528 23.385468 397.234528 19.685455 C 397.234528 16.20813 395.715851 13.324127 392.685181 11.029449 C 389.799866 8.958801 386.395844 7.922791 382.475861 7.922791 C 378.406525 7.922791 374.929199 9.292114 372.043854 12.028137 C 369.085175 14.841461 367.605194 18.242798 367.605194 22.237457 L 367.605194 26.454773 L 360.058533 26.454773 L 360.058533 22.237457 C 360.058533 16.173462 362.278534 10.993469 366.717194 6.701447 C 371.08252 2.485443 376.333191 0.376129 382.475861 0.376129 C 388.467865 0.376129 393.645203 2.15213 398.010529 5.702789 C 402.523865 9.476135 404.781189 14.137451 404.781189 19.685455 C 404.781189 24.568115 403.005188 29.156128 399.453186 33.446777 C 396.494537 36.997467 392.387848 40.289459 387.137177 43.321442 L 384.806519 44.653442 C 374.890533 50.277466 369.453186 55.752121 368.491852 61.078781 L 404.781189 61.078781 L 404.781189 68.624115 Z" />
        </g>
      </g>
    </g>
  </g>
</svg>
